<svg width="75" height="75" viewBox="0 0 75 75" fill="none" xmlns="http://www.w3.org/2000/svg">
<path d="M20.2531 0.0913364C20.416 0.0903653 20.5789 0.0893942 20.7468 0.0883937C21.2921 0.0855204 21.8375 0.0847319 22.3829 0.0839565C22.7741 0.0823648 23.1653 0.0806599 23.5565 0.0788501C24.6189 0.0743957 25.6813 0.0719088 26.7438 0.0700542C27.4075 0.068873 28.0713 0.0673859 28.735 0.0658158C30.574 0.061552 32.413 0.0579299 34.2519 0.0563761C34.4283 0.0562247 34.4283 0.0562247 34.6082 0.0560703C34.7261 0.0559692 34.8439 0.0558682 34.9654 0.055764C35.2042 0.0555578 35.4429 0.0553502 35.6817 0.0551414C35.8002 0.0550384 35.9186 0.0549354 36.0407 0.0548292C37.9604 0.0530394 39.8801 0.0467866 41.7998 0.0386439C43.7724 0.0303454 45.7449 0.0258977 47.7174 0.0252608C48.8243 0.024811 49.9312 0.0225883 51.038 0.0163094C52.079 0.0105073 53.1199 0.00956536 54.1609 0.0123509C54.5428 0.012536 54.9246 0.0109737 55.3065 0.00752837C55.8283 0.00308898 56.3496 0.00497389 56.8714 0.0084216C57.0221 0.00564247 57.1729 0.00286334 57.3282 0C58.3566 0.016155 58.8631 0.264962 59.5929 0.894468C59.6865 0.980727 59.7802 1.06698 59.8767 1.15586C60.0074 1.26411 60.1381 1.37236 60.2727 1.48389C60.3809 1.57844 60.4891 1.67299 60.6005 1.7704C60.7272 1.88077 60.8538 1.99114 60.9843 2.10486C61.1182 2.22229 61.2522 2.33972 61.3901 2.4607C61.535 2.58718 61.6799 2.71367 61.8292 2.84398C62.2225 3.18741 62.6153 3.53116 63.008 3.87508C63.4203 4.23602 63.8329 4.59659 64.2455 4.95723C64.9368 5.56167 65.6279 6.16642 66.3187 6.77134C67.1175 7.47087 67.917 8.16986 68.7168 8.86858C69.4048 9.46974 70.0926 10.0712 70.78 10.6729C71.1901 11.0317 71.6002 11.3905 72.0107 11.7491C72.4669 12.1476 72.9225 12.5468 73.378 12.946C73.5824 13.1243 73.5824 13.1243 73.791 13.3063C73.9143 13.4146 74.0377 13.5229 74.1648 13.6345C74.2725 13.7288 74.3802 13.8231 74.4912 13.9202C74.9007 14.3086 74.9283 14.5647 74.9296 15.0782C74.9303 15.2112 74.9311 15.3442 74.9319 15.4813C74.9318 15.7019 74.9318 15.7019 74.9318 15.927C74.9324 16.0826 74.933 16.2381 74.9336 16.3983C74.9355 16.9229 74.9361 17.4475 74.9367 17.9721C74.9378 18.3468 74.9389 18.7215 74.9401 19.0962C74.9433 20.2231 74.9451 21.35 74.9465 22.4769C74.9473 23.0072 74.9482 23.5375 74.949 24.0679C74.9519 25.8302 74.9543 27.5925 74.9555 29.3548C74.9558 29.8123 74.9562 30.2697 74.9565 30.7271C74.9566 30.8408 74.9566 30.9545 74.9567 31.0717C74.9581 32.9146 74.9623 34.7576 74.9678 36.6005C74.9733 38.4915 74.9763 40.3825 74.9768 42.2735C74.9772 43.3356 74.9787 44.3978 74.9829 45.46C74.9869 46.4587 74.9875 47.4574 74.9858 48.4561C74.9857 48.8233 74.9868 49.1906 74.9891 49.5578C74.992 50.0578 74.9908 50.5577 74.9886 51.0578C74.9914 51.2774 74.9914 51.2774 74.9942 51.5015C74.9837 52.481 74.9837 52.481 74.5935 52.9523C74.1745 53.1952 73.9071 53.2823 73.4041 53.3038C72.9132 53.194 72.6527 53.1288 72.3805 52.7475C72.2232 52.4011 72.1936 52.1588 72.194 51.7874C72.1933 51.6596 72.1927 51.5317 72.192 51.4C72.193 51.2601 72.1939 51.1203 72.1949 50.9763C72.1945 50.7527 72.1945 50.7527 72.1941 50.5247C72.1935 50.0238 72.1954 49.523 72.1972 49.0222C72.1973 48.6637 72.1972 48.3053 72.197 47.9469C72.197 47.1745 72.1979 46.402 72.1998 45.6296C72.2025 44.5128 72.2034 43.396 72.2038 42.2792C72.2045 40.4673 72.2067 38.6554 72.2099 36.8434C72.213 35.0833 72.2153 33.3231 72.2167 31.563C72.2168 31.4545 72.2169 31.346 72.217 31.2342C72.2174 30.69 72.2179 30.1457 72.2183 29.6015C72.2217 25.0861 72.2277 20.5707 72.2351 16.0553C70.6368 16.0553 69.0386 16.0553 67.3919 16.0553C67.3938 16.587 67.3956 17.1188 67.3975 17.6667C67.4142 22.5434 67.4266 27.4201 67.4346 32.2969C67.4356 32.9361 67.4367 33.5753 67.4378 34.2145C67.438 34.3417 67.4382 34.469 67.4385 34.6001C67.4421 36.6604 67.4487 38.7207 67.4564 40.781C67.4642 42.8951 67.4688 45.0093 67.4705 47.1234C67.4716 48.4279 67.4753 49.7323 67.482 51.0368C67.4865 51.9314 67.4878 52.826 67.4867 53.7206C67.4862 54.2367 67.487 54.7528 67.4915 55.2689C67.4963 55.8288 67.4946 56.3887 67.4923 56.9487C67.4948 57.1112 67.4972 57.2738 67.4997 57.4413C67.4888 58.4306 67.3174 59.1217 66.5569 59.8771C65.8428 60.3642 65.2702 60.6251 64.3648 60.627C64.2238 60.6277 64.0828 60.6283 63.9376 60.629C63.7053 60.629 63.7053 60.629 63.4683 60.6289C63.3037 60.6294 63.1392 60.63 62.9697 60.6305C62.4159 60.6322 61.862 60.6327 61.3082 60.6333C60.9121 60.6342 60.516 60.6352 60.1199 60.6362C58.9295 60.639 57.739 60.6405 56.5486 60.6418C55.9878 60.6425 55.4271 60.6433 54.8663 60.644C53.002 60.6465 51.1377 60.6486 49.2734 60.6497C48.7897 60.65 48.3059 60.6502 47.8221 60.6505C47.7019 60.6506 47.5817 60.6507 47.4578 60.6507C45.5105 60.652 43.5632 60.6557 41.6159 60.6604C39.6163 60.6652 37.6166 60.6679 35.6169 60.6683C34.4943 60.6686 33.3718 60.6699 32.2492 60.6737C31.193 60.6771 30.1369 60.6777 29.0807 60.6762C28.6932 60.6761 28.3057 60.677 27.9182 60.679C27.3888 60.6816 26.8595 60.6806 26.3301 60.6787C26.1006 60.6811 26.1006 60.6811 25.8664 60.6835C24.8765 60.6748 24.1303 60.5112 23.3025 60.0231C22.5854 59.3795 22.2571 58.7336 22.2625 57.8358C22.2625 57.6254 22.2625 57.6254 22.2626 57.4106C22.2643 57.261 22.266 57.1114 22.2678 56.9573C22.2683 56.8027 22.2688 56.6481 22.2692 56.4888C22.2711 55.9962 22.2753 55.5036 22.2795 55.011C22.2812 54.6765 22.2827 54.3421 22.2841 54.0076C22.2875 53.1887 22.294 52.3698 22.3004 51.5509C20.7022 51.5509 19.1039 51.5509 17.4573 51.5509C17.4678 53.1737 17.4804 54.7965 17.4966 56.4192C17.5041 57.1728 17.5106 57.9263 17.5151 58.6799C17.5195 59.4073 17.5262 60.1346 17.5346 60.862C17.5374 61.1394 17.5393 61.4167 17.5404 61.694C17.542 62.0829 17.5467 62.4716 17.5521 62.8605C17.5518 62.9748 17.5516 63.0891 17.5513 63.2069C17.565 63.9028 17.6646 64.3978 18.1253 64.9896C19.0521 65.7296 19.9844 65.6561 21.1938 65.6481C21.404 65.649 21.6142 65.6499 21.8308 65.6508C22.4131 65.6533 22.9953 65.6521 23.5776 65.6503C24.206 65.6489 24.8345 65.651 25.4629 65.6526C26.6935 65.6552 27.9241 65.6546 29.1547 65.6529C30.1548 65.6516 31.1549 65.6514 32.155 65.6521C32.2974 65.6522 32.4397 65.6523 32.5863 65.6523C32.8755 65.6525 33.1646 65.6527 33.4538 65.6529C36.1652 65.6546 38.8766 65.6527 41.5881 65.6495C43.9147 65.6469 46.2413 65.6474 48.5679 65.6501C51.2696 65.6532 53.9713 65.6544 56.6731 65.6526C56.9611 65.6524 57.2492 65.6523 57.5373 65.6521C57.6791 65.652 57.8208 65.6519 57.9668 65.6518C58.9658 65.6513 59.9647 65.6521 60.9637 65.6535C62.181 65.6552 63.3983 65.6547 64.6157 65.6516C65.2368 65.6501 65.8579 65.6495 66.4791 65.6514C67.1522 65.6535 67.8253 65.651 68.4985 65.6481C68.695 65.6494 68.8916 65.6507 69.0941 65.652C70.1339 65.6433 70.7835 65.612 71.5671 64.9896C72.2167 64.21 72.1363 63.3811 72.1301 62.4556C72.133 62.1289 72.1359 61.8022 72.1389 61.4756C72.1406 60.9627 72.1412 60.4498 72.1409 59.9369C72.1415 59.4405 72.146 58.9441 72.1509 58.4477C72.1489 58.2179 72.1489 58.2178 72.1468 57.9833C72.1592 56.9196 72.1592 56.9196 72.5535 56.3477C72.931 56.0577 73.076 55.9826 73.5711 55.997C73.6814 55.9968 73.7916 55.9966 73.9052 55.9964C74.3878 56.116 74.5888 56.3287 74.9072 56.6635C74.992 57.0233 74.992 57.0233 74.9936 57.4307C74.9957 57.5839 74.9978 57.737 75 57.8948C74.998 58.1422 74.998 58.1422 74.9959 58.3946C74.9965 58.5654 74.9972 58.7362 74.9978 58.9122C74.9983 59.2739 74.9971 59.6357 74.9943 59.9974C74.9907 60.5476 74.9942 61.0974 74.9985 61.6476C74.9981 61.9997 74.9972 62.3517 74.9959 62.7038C74.9973 62.867 74.9986 63.0301 75 63.1982C74.9798 64.691 74.5494 65.8428 73.3696 66.9342C72.0311 68.036 70.7514 68.0988 68.9994 68.0754C68.8127 68.0741 68.6261 68.0727 68.4338 68.0714C67.9751 68.068 67.5165 68.0632 67.0579 68.0571C67.0605 68.1476 67.0632 68.2381 67.0659 68.3313C67.0764 68.7481 67.0828 69.1649 67.0892 69.5818C67.0955 69.7951 67.0955 69.7951 67.102 70.0128C67.1185 71.4566 66.7712 72.6626 65.596 73.7271C64.2056 74.8671 62.9206 74.9873 61.0754 74.9792C60.7541 74.9803 60.7541 74.9803 60.4263 74.9815C59.8343 74.9837 59.2423 74.983 58.6503 74.982C58.0109 74.9813 57.3714 74.9831 56.732 74.9846C55.4802 74.9871 54.2285 74.9872 52.9768 74.9865C51.9593 74.9859 50.9417 74.9861 49.9242 74.9869C49.7793 74.987 49.6343 74.9871 49.485 74.9872C49.1906 74.9874 48.8962 74.9876 48.6017 74.9879C45.8419 74.9899 43.082 74.9891 40.3221 74.9874C37.7983 74.986 35.2745 74.9878 32.7507 74.9913C30.1578 74.9949 27.565 74.9963 24.9721 74.9953C23.517 74.9948 22.0619 74.9952 20.6067 74.9977C19.3681 74.9999 18.1295 75 16.8908 74.9974C16.2591 74.9962 15.6275 74.9958 14.9958 74.9981C14.3103 75.0005 13.625 74.9983 12.9396 74.9958C12.7409 74.9972 12.5421 74.9986 12.3373 75C10.6655 74.987 9.4672 74.6041 8.23738 73.6079C7.32164 72.7144 6.91458 71.7786 6.91583 70.5923C6.9156 70.4244 6.91537 70.2564 6.91513 70.0834C6.91603 69.8079 6.91603 69.8079 6.91695 69.5268C6.917 69.331 6.91697 69.1352 6.91688 68.9394C6.91683 68.4083 6.91781 67.8772 6.91898 67.346C6.92002 66.7908 6.92012 66.2356 6.92032 65.6804C6.92084 64.6292 6.92221 63.578 6.92388 62.5268C6.92575 61.33 6.92667 60.1331 6.92751 58.9363C6.92925 56.4745 6.93219 54.0127 6.93591 51.5509C6.82061 51.5532 6.70532 51.5555 6.58653 51.5579C6.05933 51.567 5.53216 51.5727 5.00491 51.5783C4.73285 51.5838 4.73285 51.5838 4.45529 51.5894C3.13653 51.5999 2.16872 51.4792 1.13247 50.711C1.04033 50.6455 0.948186 50.5799 0.853253 50.5124C-0.0089193 49.609 0.0158178 48.6458 0.0212019 47.5229C0.0200557 47.3553 0.0189095 47.1877 0.0177285 47.015C0.0146789 46.4626 0.0153185 45.9101 0.0162684 45.3577C0.0155064 44.9725 0.0146203 44.5874 0.0136156 44.2023C0.0119429 43.3956 0.0124892 42.5889 0.014189 41.7822C0.016105 40.8522 0.0137572 39.9224 0.00927965 38.9925C0.00512081 38.0949 0.00471692 37.1973 0.00579229 36.2996C0.00581786 35.9191 0.00480936 35.5386 0.00273688 35.158C0.000243975 34.6253 0.00203269 34.0926 0.00489274 33.5598C0.00327814 33.4036 0.00166353 33.2474 0 33.0864C0.0132957 31.8997 0.261055 30.9697 1.21597 30.0965C2.50984 29.3565 3.58881 29.2882 5.09885 29.3205C5.27602 29.3225 5.4532 29.3244 5.63575 29.3265C6.06922 29.3316 6.50252 29.3388 6.93591 29.3479C6.93241 29.1739 6.92891 29 6.92531 28.8208C6.91321 28.1751 6.90555 27.5294 6.89921 26.8836C6.89586 26.6042 6.8913 26.3248 6.88551 26.0454C6.87741 25.6436 6.87362 25.242 6.87067 24.8402C6.8655 24.653 6.8655 24.653 6.86023 24.462C6.85985 23.5938 6.85985 23.5938 7.25312 23.1345C7.6297 22.905 7.81725 22.8377 8.27195 22.8385C8.38218 22.8353 8.4924 22.8321 8.60597 22.8288C9.14689 22.9776 9.30946 23.2353 9.608 23.651C9.69793 24.0915 9.68597 24.5223 9.67324 24.9685C9.67229 25.094 9.67135 25.2194 9.67037 25.3486C9.66664 25.7475 9.65826 26.1462 9.64975 26.5451C9.6464 26.8162 9.64335 27.0874 9.64062 27.3585C9.63384 28.0218 9.62076 28.6846 9.608 29.3479C11.3165 29.3479 13.0249 29.3479 14.7852 29.3479C14.7852 22.7439 14.7852 16.14 14.7852 9.33592C11.5645 9.20643 11.5645 9.20643 10.276 10.0663C9.5722 10.8791 9.70732 11.8501 9.71303 12.824C9.71013 13.1972 9.70719 13.5705 9.70422 13.9438C9.70254 14.5307 9.70194 15.1177 9.70223 15.7046C9.70163 16.2721 9.69707 16.8395 9.69215 17.407C9.69352 17.5826 9.69489 17.7582 9.6963 17.9391C9.68385 19.1555 9.68385 19.1555 9.2896 19.7447C8.912 20.0196 8.75726 20.0955 8.27195 20.0814C8.16173 20.0816 8.05151 20.0818 7.93794 20.082C7.45166 19.9615 7.25386 19.7551 6.93591 19.4149C6.85108 19.0162 6.85108 19.0162 6.84947 18.5538C6.84737 18.3802 6.84526 18.2066 6.84309 18.0277C6.84444 17.8404 6.8458 17.6531 6.84719 17.4601C6.84674 17.2646 6.84609 17.0692 6.84525 16.8738C6.84427 16.4639 6.8457 16.054 6.84882 15.6442C6.8526 15.1226 6.85045 14.6011 6.84643 14.0795C6.844 13.6755 6.8448 13.2715 6.84652 12.8674C6.84717 12.5828 6.84516 12.2982 6.84309 12.0135C6.86177 10.4487 7.23208 9.27006 8.47354 8.1217C9.81198 7.01988 11.0917 6.95704 12.8437 6.9805C13.1237 6.98248 13.1237 6.98248 13.4093 6.9845C13.868 6.98793 14.3266 6.99272 14.7852 6.99876C14.7799 6.86536 14.7799 6.86536 14.7746 6.72926C14.6469 2.99406 14.6469 2.99406 16.0168 1.53017C17.2765 0.381442 18.4928 0.0895525 20.2531 0.0913364ZM17.9687 3.20087C17.4525 3.85766 17.4365 4.30733 17.4372 5.08938C17.437 5.19294 17.4369 5.29651 17.4367 5.40322C17.4365 5.75109 17.4374 6.09895 17.4383 6.44682C17.4383 6.69585 17.4383 6.94488 17.4382 7.19392C17.4382 7.87081 17.4392 8.54771 17.4403 9.2246C17.4414 9.9317 17.4415 10.6388 17.4417 11.3459C17.4422 12.6852 17.4436 14.0246 17.4452 15.3639C17.4471 16.8886 17.448 18.4132 17.4489 19.9379C17.4506 23.0745 17.4536 26.2112 17.4573 29.3479C19.0555 29.3479 20.6537 29.3479 22.3004 29.3479C22.302 28.9292 22.3035 28.5105 22.3052 28.0792C22.3108 26.6939 22.3201 25.3086 22.3311 23.9233C22.3377 23.0836 22.3431 22.244 22.3457 21.4043C22.3482 20.5936 22.354 19.7829 22.3619 18.9721C22.3644 18.6632 22.3657 18.3543 22.3659 18.0455C22.3663 17.6118 22.3708 17.1784 22.3763 16.7448C22.3754 16.6179 22.3746 16.491 22.3737 16.3602C22.39 15.5194 22.5768 14.8528 23.1355 14.1563C24.0573 13.5146 24.778 13.4042 25.9224 13.4028C26.0545 13.4021 26.1865 13.4014 26.3226 13.4007C26.7664 13.3984 27.2103 13.3972 27.6542 13.396C27.9718 13.3946 28.2894 13.3931 28.6071 13.3916C29.4707 13.3876 30.3343 13.3846 31.1979 13.3817C32.0999 13.3785 33.002 13.3745 33.904 13.3705C35.6127 13.3632 37.3215 13.3567 39.0302 13.3504C40.9753 13.3432 42.9203 13.3351 44.8654 13.3271C48.8671 13.3104 52.8689 13.2948 56.8706 13.2799C56.8309 13.0237 56.8309 13.0237 56.7904 12.7624C56.663 11.7538 56.6645 10.7414 56.6507 9.72792C56.6473 9.51365 56.6438 9.29938 56.6402 9.08511C56.6311 8.52537 56.6228 7.96561 56.6147 7.40586C56.6063 6.83298 56.597 6.26011 56.5878 5.68725C56.5699 4.56632 56.5529 3.44538 56.5366 2.32444C51.7692 2.3142 47.0018 2.30647 42.2344 2.30173C40.0208 2.29947 37.8073 2.29639 35.5937 2.29138C33.6643 2.28701 31.735 2.28418 29.8056 2.28321C28.7841 2.28264 27.7625 2.28129 26.7409 2.27811C25.7792 2.27513 24.8175 2.27421 23.8558 2.27487C23.503 2.27475 23.1502 2.27388 22.7975 2.2722C22.3152 2.27001 21.8331 2.27055 21.3508 2.27174C21.1422 2.26983 21.1422 2.26983 20.9294 2.26787C19.8092 2.27535 18.7391 2.42354 17.9687 3.20087ZM59.2087 4.07731C59.1959 5.16114 59.1872 6.24495 59.1811 7.32882C59.1786 7.69733 59.1752 8.06584 59.1709 8.43435C59.1648 8.96483 59.1619 9.49527 59.1597 10.0258C59.1571 10.1898 59.1546 10.3539 59.1519 10.5229C59.1516 11.5067 59.1895 12.3253 59.9661 13.0962C60.6907 13.5662 61.0312 13.7365 61.9268 13.7347C62.1107 13.7347 62.2946 13.7347 62.484 13.7347C62.6832 13.7339 62.8824 13.7331 63.0876 13.7324C63.291 13.7322 63.4944 13.732 63.704 13.7317C64.3558 13.7309 65.0075 13.7291 65.6592 13.7272C66.1003 13.7265 66.5412 13.7258 66.9822 13.7252C68.0652 13.7236 69.1481 13.7212 70.231 13.7181C69.5882 13.0462 68.9229 12.4066 68.2134 11.7884C68.1174 11.7042 68.0214 11.62 67.9225 11.5332C67.6093 11.2586 67.2955 10.9845 66.9816 10.7105C66.7625 10.5187 66.5434 10.327 66.3243 10.1352C65.8674 9.73534 65.4102 9.33574 64.9528 8.93633C64.3651 8.42319 63.7783 7.90938 63.1916 7.39539C62.7405 7.00028 62.289 6.60552 61.8373 6.21087C61.6206 6.0214 61.404 5.83182 61.1875 5.64213C60.8865 5.37847 60.5849 5.11528 60.2832 4.85222C60.1933 4.77323 60.1033 4.69425 60.0106 4.61288C59.6677 4.24272 59.6677 4.24272 59.2087 4.07731ZM24.9725 15.7631C24.9725 16.8236 24.9725 17.8841 24.9725 18.9767C28.7752 18.9767 32.5779 18.9767 36.4959 18.9767C36.4959 17.868 36.4959 16.7593 36.4959 15.617C35.0181 15.6138 33.5403 15.6111 32.0625 15.6095C31.3764 15.6087 30.6902 15.6077 30.0041 15.606C29.3425 15.6044 28.6809 15.6036 28.0192 15.6032C27.7663 15.6029 27.5133 15.6024 27.2603 15.6016C26.9072 15.6005 26.5541 15.6004 26.201 15.6005C25.9996 15.6001 25.7982 15.5998 25.5907 15.5995C25.1534 15.572 25.1534 15.572 24.9725 15.7631ZM39.168 15.617C39.168 16.7257 39.168 17.8344 39.168 18.9767C42.9156 18.9767 46.6632 18.9767 50.5244 18.9767C50.5244 17.868 50.5244 16.7593 50.5244 15.617C46.7768 15.617 43.0292 15.617 39.168 15.617ZM53.1965 15.617C53.1965 16.7257 53.1965 17.8344 53.1965 18.9767C56.9992 18.9767 60.8019 18.9767 64.7198 18.9767C64.7198 18.0126 64.7198 17.0486 64.7198 16.0553C64.4441 16.0481 64.1683 16.041 63.8842 16.0336C63.5191 16.0226 63.1539 16.0116 62.7888 16.0005C62.5168 15.9937 62.5168 15.9937 62.2392 15.9868C62.0622 15.9811 61.8851 15.9755 61.7027 15.9697C61.5409 15.9651 61.3791 15.9605 61.2124 15.9558C60.7117 15.9092 60.7117 15.9092 60.1592 15.7611C59.4317 15.5911 58.7884 15.58 58.0403 15.5885C57.9011 15.5889 57.7619 15.5893 57.6184 15.5898C57.1778 15.5914 56.7372 15.5951 56.2965 15.5988C55.9961 15.6003 55.6957 15.6016 55.3953 15.6028C54.6623 15.6057 53.9294 15.6115 53.1965 15.617ZM24.9725 21.1678C24.9725 22.2765 24.9725 23.3852 24.9725 24.5275C28.7752 24.5275 32.5779 24.5275 36.4959 24.5275C36.4959 23.4188 36.4959 22.3101 36.4959 21.1678C32.6932 21.1678 28.8905 21.1678 24.9725 21.1678ZM39.168 21.1678C39.168 22.2765 39.168 23.3852 39.168 24.5275C42.9156 24.5275 46.6632 24.5275 50.5244 24.5275C50.5244 23.4188 50.5244 22.3101 50.5244 21.1678C46.7768 21.1678 43.0292 21.1678 39.168 21.1678ZM53.1965 21.1678C53.1965 22.2765 53.1965 23.3852 53.1965 24.5275C56.9992 24.5275 60.8019 24.5275 64.7198 24.5275C64.7198 23.4188 64.7198 22.3101 64.7198 21.1678C60.9171 21.1678 57.1144 21.1678 53.1965 21.1678ZM24.9725 26.8646C24.9725 27.6841 24.9725 28.5036 24.9725 29.3479C28.7752 29.3479 32.5779 29.3479 36.4959 29.3479C36.4959 28.5284 36.4959 27.7089 36.4959 26.8646C32.6932 26.8646 28.8905 26.8646 24.9725 26.8646ZM39.168 26.8646C39.168 27.6841 39.168 28.5036 39.168 29.3479C39.6227 29.3533 40.0773 29.3588 40.5458 29.3644C40.9897 29.3712 41.4335 29.3787 41.8773 29.3862C42.1841 29.391 42.4909 29.3951 42.7977 29.3985C43.2405 29.4034 43.6832 29.4111 44.126 29.4192C44.3293 29.4206 44.3293 29.4206 44.5368 29.422C45.6695 29.4472 46.5614 29.6663 47.5183 30.2243C47.8572 30.2643 47.8572 30.2643 48.2248 30.2528C48.3456 30.2521 48.4664 30.2514 48.5909 30.2506C48.8194 30.2466 48.8194 30.2466 49.0526 30.2426C49.5383 30.2365 50.024 30.2305 50.5244 30.2243C50.5244 29.1156 50.5244 28.0069 50.5244 26.8646C46.7768 26.8646 43.0292 26.8646 39.168 26.8646ZM53.1965 26.8646C53.1965 27.9733 53.1965 29.082 53.1965 30.2243C56.9992 30.2243 60.8019 30.2243 64.7198 30.2243C64.7198 29.1156 64.7198 28.0069 64.7198 26.8646C60.9171 26.8646 57.1144 26.8646 53.1965 26.8646ZM2.99588 31.9384C2.72709 32.3167 2.67687 32.5204 2.67594 32.9633C2.67406 33.1023 2.67217 33.2414 2.67023 33.3847C2.67159 33.5362 2.67294 33.6878 2.67433 33.8439C2.67316 34.0043 2.67199 34.1647 2.67078 34.3299C2.66784 34.8605 2.66979 35.3911 2.67205 35.9217C2.6716 36.2899 2.67095 36.6581 2.67011 37.0263C2.66913 37.798 2.6705 38.5698 2.67368 39.3415C2.67732 40.2339 2.67614 41.1261 2.67246 42.0185C2.66906 42.877 2.66942 43.7356 2.67138 44.5941C2.67182 44.9595 2.67127 45.3248 2.66972 45.6902C2.66803 46.2001 2.6706 46.7099 2.67433 47.2198C2.67298 47.3717 2.67163 47.5235 2.67023 47.68C2.67212 47.8186 2.674 47.9573 2.67594 48.1001C2.67619 48.2207 2.67645 48.3412 2.67671 48.4655C2.79314 48.8949 3.00626 48.9848 3.42879 49.2138C3.78471 49.2785 3.78471 49.2785 4.16685 49.2689C4.31448 49.27 4.4621 49.2712 4.61419 49.2724C4.77566 49.2714 4.93712 49.2704 5.10348 49.2694C5.27555 49.2701 5.44763 49.2708 5.62492 49.2715C6.2033 49.2732 6.78161 49.2718 7.35999 49.2705C7.7739 49.271 8.18782 49.2718 8.60173 49.2728C9.6103 49.2746 10.6188 49.2743 11.6274 49.273C12.4469 49.272 13.2664 49.2719 14.0858 49.2724C14.2024 49.2725 14.319 49.2725 14.4391 49.2726C14.6759 49.2727 14.9127 49.2729 15.1495 49.273C17.3704 49.2743 19.5914 49.2728 21.8123 49.2705C23.719 49.2685 25.6256 49.2689 27.5323 49.2709C29.7455 49.2732 31.9587 49.2742 34.1719 49.2728C34.4077 49.2727 34.6436 49.2725 34.8795 49.2724C34.9956 49.2723 35.1116 49.2723 35.2312 49.2722C36.05 49.2718 36.8688 49.2724 37.6876 49.2735C38.789 49.2748 39.8904 49.2739 40.9918 49.2713C41.3969 49.2708 41.802 49.2709 42.2071 49.2719C42.7583 49.2731 43.3095 49.2716 43.8607 49.2694C44.0226 49.2704 44.1844 49.2714 44.3511 49.2724C44.5719 49.2706 44.5719 49.2706 44.7972 49.2689C44.9881 49.2688 44.9881 49.2688 45.1829 49.2687C45.6052 49.1987 45.754 49.0686 46.0152 48.7755C46.0909 48.4551 46.0909 48.4551 46.08 48.0936C46.0816 47.9535 46.0833 47.8134 46.085 47.6691C46.0838 47.4389 46.0838 47.4389 46.0827 47.2041C46.0838 47.0423 46.085 46.8806 46.0862 46.7139C46.0892 46.1777 46.0886 45.6416 46.0876 45.1055C46.0884 44.7338 46.0893 44.3621 46.0903 43.9904C46.0918 43.2109 46.0914 42.4314 46.0897 41.6519C46.0878 40.7505 46.0901 39.8492 46.0946 38.9479C46.0988 38.081 46.0992 37.2141 46.0981 36.3472C46.0981 35.9782 46.0991 35.6091 46.1012 35.2401C46.1036 34.7249 46.1019 34.2099 46.099 33.6947C46.1006 33.5412 46.1022 33.3878 46.1039 33.2297C46.1023 33.0896 46.1006 32.9495 46.0989 32.8052C46.0989 32.6224 46.0989 32.6224 46.0988 32.436C46.039 32.1116 46.039 32.1116 45.7802 31.8651C45.0963 31.5807 44.4278 31.6243 43.68 31.6284C43.4231 31.6272 43.4231 31.6272 43.161 31.626C42.5853 31.6239 42.0097 31.625 41.434 31.626C41.022 31.6252 40.61 31.6242 40.198 31.623C39.1941 31.6206 38.1901 31.6203 37.1862 31.6211C36.3704 31.6217 35.5546 31.6215 34.7388 31.6207C34.5647 31.6205 34.5647 31.6205 34.3871 31.6204C34.1513 31.6202 33.9156 31.6199 33.6798 31.6197C31.4685 31.6177 29.2571 31.6185 27.0458 31.6202C25.0219 31.6216 22.9981 31.6197 20.9742 31.6162C18.8968 31.6127 16.8194 31.6113 14.7419 31.6122C13.5753 31.6127 12.4087 31.6124 11.2421 31.6099C10.1455 31.6075 9.04893 31.6082 7.95231 31.6109C7.54917 31.6115 7.14602 31.611 6.74289 31.6095C6.19387 31.6076 5.64502 31.6092 5.09601 31.6118C4.93531 31.6104 4.77461 31.609 4.60904 31.6076C3.75086 31.6127 3.75086 31.6127 2.99588 31.9384ZM48.6873 32.4154C48.6873 33.5241 48.6873 34.6328 48.6873 35.7751C49.2935 35.7751 49.8998 35.7751 50.5244 35.7751C50.5244 34.6664 50.5244 33.5577 50.5244 32.4154C49.9181 32.4154 49.3119 32.4154 48.6873 32.4154ZM53.1965 32.4154C53.1965 33.5241 53.1965 34.6328 53.1965 35.7751C56.9992 35.7751 60.8019 35.7751 64.7198 35.7751C64.7198 34.6664 64.7198 33.5577 64.7198 32.4154C60.9171 32.4154 57.1144 32.4154 53.1965 32.4154ZM48.6873 38.1122C48.6873 39.1727 48.6873 40.2332 48.6873 41.3258C49.2935 41.3258 49.8998 41.3258 50.5244 41.3258C50.5244 40.2653 50.5244 39.2049 50.5244 38.1122C49.9181 38.1122 49.3119 38.1122 48.6873 38.1122ZM53.1965 38.1122C53.1965 39.1727 53.1965 40.2332 53.1965 41.3258C56.9992 41.3258 60.8019 41.3258 64.7198 41.3258C64.7198 40.2653 64.7198 39.2049 64.7198 38.1122C60.9171 38.1122 57.1144 38.1122 53.1965 38.1122ZM48.6873 43.663C48.6873 44.7717 48.6873 45.8804 48.6873 47.0227C49.2935 47.0227 49.8998 47.0227 50.5244 47.0227C50.5244 45.914 50.5244 44.8053 50.5244 43.663C49.9181 43.663 49.3119 43.663 48.6873 43.663ZM53.1965 43.663C53.1965 44.7717 53.1965 45.8804 53.1965 47.0227C56.9992 47.0227 60.8019 47.0227 64.7198 47.0227C64.7198 45.914 64.7198 44.8053 64.7198 43.663C60.9171 43.663 57.1144 43.663 53.1965 43.663ZM48.2306 49.5995C48.0961 49.8058 47.9699 50.0165 47.8523 50.2306C47.5421 50.7838 47.0527 51.0388 46.4199 51.2698C45.7 51.4398 45.0315 51.4564 44.2891 51.4653C44.1422 51.4682 43.9953 51.471 43.844 51.4739C43.3779 51.4826 42.9117 51.4894 42.4455 51.4961C42.1282 51.5017 41.8109 51.5074 41.4937 51.5133C40.7185 51.5272 39.9432 51.5395 39.168 51.5509C39.168 51.8883 39.168 52.2258 39.168 52.5734C42.9156 52.5734 46.6632 52.5734 50.5244 52.5734C50.5244 51.5129 50.5244 50.4524 50.5244 49.3598C49.2944 49.1954 49.2944 49.1954 48.2306 49.5995ZM53.1965 49.3598C53.1965 50.4203 53.1965 51.4808 53.1965 52.5734C56.9992 52.5734 60.8019 52.5734 64.7198 52.5734C64.7198 51.5129 64.7198 50.4524 64.7198 49.3598C60.9171 49.3598 57.1144 49.3598 53.1965 49.3598ZM9.608 51.5509C9.59669 54.0688 9.58746 56.5867 9.58204 59.1047C9.57946 60.2738 9.57594 61.4429 9.5702 62.6121C9.56521 63.6312 9.56198 64.6503 9.56086 65.6694C9.56021 66.209 9.55867 66.7485 9.55503 67.288C9.55099 67.8906 9.55089 68.4931 9.55112 69.0957C9.54932 69.2742 9.54752 69.4527 9.54566 69.6366C9.54431 70.8085 9.54431 70.8085 10.109 71.855C11.2376 72.8154 12.4746 72.7738 13.9596 72.7695C14.1641 72.7701 14.3687 72.7706 14.5794 72.7712C15.1458 72.7725 15.7121 72.7724 16.2785 72.7718C16.8899 72.7714 17.5012 72.7727 18.1126 72.7738C19.3098 72.7757 20.507 72.7759 21.7042 72.7756C22.6775 72.7753 23.6507 72.7756 24.6239 72.7762C24.8317 72.7764 24.8317 72.7764 25.0436 72.7765C25.3251 72.7767 25.6065 72.7768 25.8879 72.777C28.527 72.7786 31.1662 72.7783 33.8053 72.7774C36.2191 72.7766 38.6329 72.7783 41.0467 72.7811C43.5257 72.7839 46.0048 72.7851 48.4838 72.7846C49.8754 72.7843 51.2669 72.7846 52.6585 72.7867C53.8432 72.7884 55.0279 72.7887 56.2126 72.7869C56.8168 72.786 57.4211 72.7859 58.0253 72.7876C58.6808 72.7895 59.3363 72.788 59.9918 72.7861C60.1821 72.7872 60.3725 72.7883 60.5686 72.7894C61.6629 72.7828 62.7867 72.7695 63.6432 72.0863C64.2228 71.5064 64.4076 71.0505 64.4021 70.2967C64.4013 70.1011 64.4013 70.1011 64.4005 69.9016C64.3991 69.7659 64.3977 69.6302 64.3963 69.4905C64.3951 69.2844 64.3951 69.2844 64.394 69.0742C64.392 68.7352 64.3893 68.3961 64.3858 68.0571C64.2896 68.057 64.1933 68.0569 64.0941 68.0569C58.3875 68.0516 52.6808 68.0433 46.9741 68.0311C46.2887 68.0297 45.6032 68.0282 44.9178 68.0268C44.7814 68.0265 44.6449 68.0262 44.5043 68.0259C42.2958 68.0214 40.0872 68.0189 37.8787 68.0172C35.6119 68.0154 33.3452 68.0114 31.0785 68.0053C29.6802 68.0017 28.2819 67.9997 26.8836 67.9999C25.9243 67.9999 24.965 67.9978 24.0057 67.994C23.4525 67.9919 22.8994 67.991 22.3461 67.992C21.7455 67.993 21.1449 67.9904 20.5443 67.9869C20.3706 67.988 20.1969 67.9891 20.018 67.9903C18.5346 67.975 17.3231 67.6021 16.2165 66.7196C15.1853 65.6606 14.9288 64.5046 14.9179 63.159C14.9162 63.0335 14.9146 62.9081 14.9129 62.7788C14.9076 62.3646 14.9035 61.9505 14.8993 61.5363C14.8959 61.249 14.8924 60.9616 14.8888 60.6743C14.8796 59.9183 14.8714 59.1623 14.8633 58.4064C14.8549 57.6348 14.8456 56.8633 14.8364 56.0917C14.8184 54.5781 14.8016 53.0645 14.7852 51.5509C13.0767 51.5509 11.3682 51.5509 9.608 51.5509ZM24.9725 51.5509C24.9725 51.8883 24.9725 52.2258 24.9725 52.5734C28.7752 52.5734 32.5779 52.5734 36.4959 52.5734C36.4959 52.236 36.4959 51.8986 36.4959 51.5509C32.6932 51.5509 28.8905 51.5509 24.9725 51.5509ZM24.9725 54.9106C24.9725 55.9711 24.9725 57.0316 24.9725 58.1242C25.1534 58.3153 25.1534 58.3153 25.5907 58.2878C25.7921 58.2875 25.9935 58.2872 26.201 58.2868C26.3117 58.2869 26.4225 58.2869 26.5367 58.2869C26.9045 58.2868 27.2722 58.2857 27.64 58.2845C27.8944 58.2842 28.1488 58.284 28.4032 58.2839C29.0739 58.2833 29.7446 58.2819 30.4154 58.2803C31.0993 58.2788 31.7833 58.2781 32.4672 58.2774C33.8101 58.2758 35.153 58.2733 36.4959 58.2703C36.4959 57.1616 36.4959 56.0529 36.4959 54.9106C32.6932 54.9106 28.8905 54.9106 24.9725 54.9106ZM39.168 54.9106C39.168 56.0193 39.168 57.128 39.168 58.2703C42.9156 58.2703 46.6632 58.2703 50.5244 58.2703C50.5244 57.1616 50.5244 56.0529 50.5244 54.9106C46.7768 54.9106 43.0292 54.9106 39.168 54.9106ZM53.1965 54.9106C53.1965 56.0193 53.1965 57.128 53.1965 58.2703C54.6743 58.2735 56.1521 58.2762 57.6299 58.2778C58.316 58.2786 59.0021 58.2796 59.6883 58.2813C60.3499 58.2829 61.0115 58.2837 61.6731 58.2841C61.9261 58.2844 62.1791 58.2849 62.432 58.2857C62.7852 58.2868 63.1383 58.2869 63.4914 58.2868C63.7935 58.2873 63.7935 58.2873 64.1016 58.2878C64.5389 58.3153 64.5389 58.3153 64.7198 58.1242C64.7198 57.0637 64.7198 56.0032 64.7198 54.9106C60.9171 54.9106 57.1144 54.9106 53.1965 54.9106Z" fill="#EBF4F6"/>
<path d="M7.93798 34.5154C9.00504 34.7098 9.61182 35.7107 10.2134 36.4508C10.3718 36.6447 10.5305 36.8384 10.6897 37.0317C10.7587 37.1166 10.8277 37.2014 10.8988 37.2888C11.1178 37.5357 11.3546 37.7503 11.6121 37.9663C11.6587 37.8813 11.7054 37.7963 11.7534 37.7088C12.0664 37.1781 12.4588 36.6966 12.8438 36.2043C12.9243 36.0992 13.0048 35.994 13.0878 35.8857C13.858 34.8998 13.858 34.8998 14.4512 34.6067C14.9418 34.5336 14.9418 34.5336 15.4532 34.6067C15.9821 34.9486 16.2536 35.155 16.3633 35.7308C16.2586 36.4043 15.8971 36.8067 15.4428 37.3455C15.3598 37.4481 15.2767 37.5507 15.1912 37.6564C14.822 38.1113 14.4442 38.5586 14.0572 39.002C13.8957 39.1898 13.8957 39.1898 13.731 39.3814C13.6352 39.4874 13.5394 39.5934 13.4407 39.7027C13.2411 40.0092 13.2411 40.0092 13.3676 40.3514C13.6908 40.8589 14.0708 41.3114 14.4721 41.7734C14.6374 41.9682 14.8024 42.1631 14.9672 42.3582C15.049 42.4548 15.1308 42.5515 15.215 42.651C15.2936 42.744 15.3722 42.837 15.4532 42.9328C15.5605 43.0596 15.5605 43.0596 15.6699 43.1889C15.8616 43.4181 16.049 43.6502 16.2361 43.8823C16.3972 44.0789 16.3972 44.0789 16.5616 44.2794C16.8464 44.7877 16.8474 45.1488 16.7893 45.7082C16.5388 46.0642 16.5388 46.0642 16.1213 46.2925C15.2977 46.4203 15.2977 46.4203 14.7852 46.2925C13.9015 45.6373 13.2755 44.6517 12.635 43.8184C12.536 43.6906 12.437 43.5629 12.3349 43.4312C12.0933 43.1194 11.8524 42.8072 11.6121 42.4946C11.0597 42.6557 11.0018 42.7208 10.6955 43.1251C10.6193 43.2242 10.5431 43.3234 10.4646 43.4255C10.3851 43.531 10.3057 43.6366 10.2239 43.7453C10.0597 43.9589 9.89527 44.1723 9.73069 44.3856C9.652 44.488 9.57332 44.5905 9.49225 44.6961C8.41854 46.0823 8.41854 46.0823 7.93798 46.2925C7.30357 46.3439 6.91197 46.3695 6.36187 46.0734C5.99803 45.5642 5.97539 45.1165 6.10092 44.5396C6.37452 44.0713 6.73086 43.673 7.10296 43.2615C7.30222 43.0315 7.50119 42.8014 7.69987 42.5711C7.79747 42.4594 7.89508 42.3476 7.99564 42.2326C8.56996 41.5629 9.08714 40.8594 9.60804 40.1574C8.88734 39.1347 8.12479 38.1492 7.31832 37.1771C6.7728 36.5185 6.49022 36.1677 6.60194 35.337C7.0121 34.8517 7.25755 34.6394 7.93798 34.5154Z" fill="#EBF4F6"/>
<path d="M39.0115 35.5013C39.6161 35.8749 39.6161 35.8749 39.8361 36.0673C39.87 36.3538 39.87 36.3538 39.8779 36.7064C39.8822 36.822 39.8865 36.9376 39.8909 37.0567C39.8235 37.4567 39.6948 37.5751 39.3351 37.8202C38.7582 38.0164 38.5243 37.9741 37.9364 37.7837C37.7335 37.7005 37.5317 37.6152 37.331 37.5281C36.4208 37.1372 35.8231 37.004 34.8259 37.0898C34.3984 37.236 34.3984 37.236 34.1579 37.5281C34.137 37.9043 34.137 37.9043 34.1579 38.2584C34.4152 38.3622 34.6727 38.4656 34.9303 38.5688C35.0972 38.6359 35.264 38.7029 35.4359 38.7719C35.8176 38.92 36.2028 39.0612 36.5906 39.1965C38.0085 39.6942 39.125 40.1815 39.9927 41.3077C40.4434 42.4671 40.3946 43.4101 39.8361 44.5395C39.1925 45.4837 38.1784 45.9572 36.997 46.2924C35.0092 46.5192 33.269 46.2537 31.6424 45.1877C31.0319 44.7542 30.677 44.4572 30.5882 43.7453C30.6508 43.2249 30.6508 43.2249 30.9013 42.8688C31.375 42.6099 31.7482 42.5412 32.3071 42.563C32.8468 42.6834 33.1547 42.9726 33.5506 43.3025C34.2679 43.8655 35.1853 43.8729 36.1046 43.856C36.6763 43.7876 36.9588 43.603 37.331 43.2249C37.5515 42.9528 37.5515 42.9528 37.498 42.6406C36.676 41.6926 35.3773 41.4295 34.1416 41.0358C32.9862 40.6435 32.1468 40.2232 31.4858 39.2809C31.0945 38.3468 31.0215 37.4292 31.4858 36.5055C32.1433 35.6353 32.9818 34.9837 34.1338 34.6677C35.8838 34.3693 37.5342 34.6535 39.0115 35.5013Z" fill="#EBF4F6"/>
<path d="M22.6344 34.5154C23.1467 34.6087 23.4363 34.7227 23.7966 35.0571C24.2089 35.721 24.0691 36.5603 24.052 37.2936C24.0508 37.4839 24.0497 37.6741 24.0484 37.8702C24.0453 38.3743 24.0371 38.8782 24.0278 39.3823C24.0192 39.8973 24.0154 40.4124 24.0112 40.9275C24.0023 41.9368 23.9881 42.9461 23.9705 43.9553C24.1657 43.9485 24.361 43.9418 24.5622 43.9348C24.8207 43.9293 25.0793 43.924 25.3378 43.9188C25.4662 43.9139 25.5947 43.909 25.727 43.904C26.4003 43.8939 26.7273 43.9101 27.3125 44.2315C27.6446 44.5396 27.6446 44.5396 27.7496 44.8318C27.746 44.9282 27.7423 45.0246 27.7385 45.1239C27.7389 45.2685 27.7389 45.2685 27.7392 45.4161C27.5999 45.8461 27.3744 46.0144 26.9766 46.2925C26.4514 46.3704 26.4514 46.3704 25.8388 46.3752C25.7302 46.3761 25.6215 46.377 25.5095 46.378C25.2804 46.379 25.0514 46.3785 24.8223 46.3767C24.4724 46.3747 24.1233 46.3796 23.7735 46.3852C23.5503 46.3853 23.3272 46.3851 23.1041 46.3844C22.902 46.3845 22.6998 46.3846 22.4916 46.3847C21.9664 46.2925 21.9664 46.2925 21.6051 45.9847C21.2295 45.4673 21.2128 45.1621 21.2093 44.5522C21.2079 44.4535 21.2064 44.3548 21.2049 44.2532C21.2012 43.9286 21.2023 43.6043 21.2038 43.2797C21.2029 43.0533 21.2019 42.8268 21.2007 42.6004C21.1989 42.1264 21.1997 41.6525 21.2021 41.1785C21.205 40.5719 21.2011 39.9654 21.1952 39.3587C21.1915 38.8913 21.1918 38.4239 21.1931 37.9565C21.1933 37.7328 21.1921 37.5092 21.1897 37.2856C21.1868 36.9726 21.1892 36.66 21.193 36.347C21.1931 36.1692 21.1933 35.9913 21.1935 35.8081C21.3563 35.077 21.7992 34.6676 22.6344 34.5154Z" fill="#EBF4F6"/>
</svg>
