<svg width="24" height="24" viewBox="0 0 24 24" fill="none" xmlns="http://www.w3.org/2000/svg">
<path d="M15 3.5H16.5V4.5H15C14.4199 4.5 13.8609 4.70197 13.416 5.06641L13.2324 5.23242C12.7636 5.70126 12.5 6.33696 12.5 7V10C12.5 10.8284 13.1716 11.5 14 11.5H16.0791L15.8291 12.5H14C13.1716 12.5 12.5 13.1716 12.5 14V20.5H11.5V14C11.5 13.2233 10.9097 12.5846 10.1533 12.5078L10 12.5H8.5V11.5H10C10.8284 11.5 11.5 10.8284 11.5 10V7C11.5 6.07174 11.869 5.18177 12.5254 4.52539C13.1818 3.86901 14.0717 3.5 15 3.5Z" stroke="#09637E" stroke-width="3" stroke-linecap="round" stroke-linejoin="round"/>
</svg>
