<svg width="28" height="50" viewBox="0 0 28 50" fill="none" xmlns="http://www.w3.org/2000/svg">
<mask id="path-1-inside-1_144_14" fill="white">
<path d="M27.5 0H20C16.6848 0 13.5054 1.31696 11.1612 3.66117C8.81696 6.00537 7.5 9.18479 7.5 12.5V20H0V30H7.5V50H17.5V30H25L27.5 20H17.5V12.5C17.5 11.837 17.7634 11.2011 18.2322 10.7322C18.7011 10.2634 19.337 10 20 10H27.5V0Z"/>
</mask>
<path d="M27.5 0H127.5C127.5 -55.2285 82.7285 -100 27.5 -100V0ZM20 0V-100V0ZM7.5 12.5H-92.5H7.5ZM7.5 20V120C62.7285 120 107.5 75.2285 107.5 20H7.5ZM0 20V-80C-55.2285 -80 -100 -35.2285 -100 20H0ZM0 30H-100C-100 85.2285 -55.2285 130 0 130L0 30ZM7.5 30H107.5C107.5 -25.2285 62.7285 -70 7.5 -70V30ZM7.5 50H-92.5C-92.5 105.228 -47.7285 150 7.5 150V50ZM17.5 50V150C72.7285 150 117.5 105.228 117.5 50H17.5ZM17.5 30V-70C-37.7285 -70 -82.5 -25.2285 -82.5 30H17.5ZM25 30V130C70.8868 130 110.885 98.7703 122.014 54.2536L25 30ZM27.5 20L124.514 44.2536C131.983 14.3794 125.271 -17.2696 106.321 -41.5412C87.3698 -65.8129 58.2935 -80 27.5 -80V20ZM17.5 20H-82.5C-82.5 75.2285 -37.7285 120 17.5 120V20ZM20 10V110V10ZM27.5 10V110C82.7285 110 127.5 65.2285 127.5 10H27.5ZM27.5 0V-100H20V0V100H27.5V0ZM20 0V-100C-9.83686 -100 -38.4517 -88.1474 -59.5495 -67.0495L11.1612 3.66117L81.8718 74.3718C65.4624 90.7813 43.2064 100 20 100V0ZM11.1612 3.66117L-59.5495 -67.0495C-80.6474 -45.9517 -92.5 -17.3368 -92.5 12.5H7.5H107.5C107.5 35.7064 98.2813 57.9624 81.8718 74.3718L11.1612 3.66117ZM7.5 12.5H-92.5V20H7.5H107.5V12.5H7.5ZM7.5 20V-80H0V20V120H7.5V20ZM0 20H-100V30H0H100V20H0ZM0 30V130H7.5V30V-70H0V30ZM7.5 30H-92.5V50H7.5H107.5V30H7.5ZM7.5 50V150H17.5V50V-50H7.5V50ZM17.5 50H117.5V30H17.5H-82.5V50H17.5ZM17.5 30V130H25V30V-70H17.5V30ZM25 30L122.014 54.2536L124.514 44.2536L27.5 20L-69.5143 -4.25355L-72.0143 5.74645L25 30ZM27.5 20V-80H17.5V20V120H27.5V20ZM17.5 20H117.5V12.5H17.5H-82.5V20H17.5ZM17.5 12.5H117.5C117.5 38.3585 107.228 63.1581 88.9429 81.4429L18.2322 10.7322L-52.4785 -59.9784C-71.701 -40.7559 -82.5 -14.6846 -82.5 12.5H17.5ZM18.2322 10.7322L88.9429 81.4429C70.6581 99.7277 45.8586 110 20 110V10V-90C-7.18471 -90 -33.256 -79.2009 -52.4785 -59.9784L18.2322 10.7322ZM20 10V110H27.5V10V-90H20V10ZM27.5 10H127.5V0H27.5H-72.5V10H27.5Z" fill="#09637E" mask="url(#path-1-inside-1_144_14)"/>
</svg>
