<svg width="23" height="23" viewBox="0 0 23 23" fill="none" xmlns="http://www.w3.org/2000/svg">
<path d="M16.75 5.75H16.76M6.25 1.25H16.25C19.0114 1.25 21.25 3.48858 21.25 6.25V16.25C21.25 19.0114 19.0114 21.25 16.25 21.25H6.25C3.48858 21.25 1.25 19.0114 1.25 16.25V6.25C1.25 3.48858 3.48858 1.25 6.25 1.25ZM15.25 10.62C15.3734 11.4522 15.2313 12.3022 14.8438 13.049C14.4563 13.7958 13.8431 14.4014 13.0916 14.7797C12.3401 15.1579 11.4884 15.2896 10.6578 15.1559C9.82713 15.0223 9.05976 14.6301 8.46484 14.0352C7.86992 13.4402 7.47773 12.6729 7.34407 11.8422C7.2104 11.0116 7.34207 10.1599 7.72033 9.40837C8.09859 8.65685 8.70419 8.04374 9.45098 7.65624C10.1978 7.26874 11.0478 7.12659 11.88 7.25C12.7289 7.37588 13.5149 7.77146 14.1217 8.37831C14.7285 8.98515 15.1241 9.77108 15.25 10.62Z" stroke="#09637E" stroke-width="2.5" stroke-linecap="round" stroke-linejoin="round"/>
</svg>
