<svg width="60" height="60" viewBox="0 0 60 60" fill="none" xmlns="http://www.w3.org/2000/svg">
<path d="M43.75 16.25H43.775M17.5 5H42.5C49.4035 5 55 10.5964 55 17.5V42.5C55 49.4036 49.4035 55 42.5 55H17.5C10.5964 55 5 49.4036 5 42.5V17.5C5 10.5964 10.5964 5 17.5 5ZM40 28.425C40.3085 30.5056 39.9531 32.6305 38.9844 34.4975C38.0156 36.3645 36.4829 37.8785 34.6041 38.8242C32.7253 39.7698 30.5961 40.099 28.5195 39.7648C26.4428 39.4307 24.5244 38.4502 23.0371 36.9629C21.5498 35.4756 20.5693 33.5572 20.2352 31.4805C19.901 29.4039 20.2302 27.2747 21.1758 25.3959C22.1215 23.5171 23.6355 21.9844 25.5025 21.0156C27.3695 20.0469 29.4944 19.6915 31.575 20C33.6973 20.3147 35.6621 21.3037 37.1792 22.8208C38.6963 24.3379 39.6853 26.3027 40 28.425Z" stroke="#09637E" stroke-width="7" stroke-linecap="round" stroke-linejoin="round"/>
</svg>
