<svg width="60" height="60" viewBox="0 0 60 60" fill="none" xmlns="http://www.w3.org/2000/svg">
<mask id="path-1-inside-1_117_760" fill="white">
<path d="M55 42.3V49.8C55.0028 50.4963 54.8602 51.1854 54.5813 51.8234C54.3023 52.4613 53.8932 53.034 53.3802 53.5047C52.8671 53.9753 52.2614 54.3337 51.6019 54.5568C50.9423 54.7798 50.2434 54.8627 49.55 54.8C41.8571 53.9641 34.4675 51.3354 27.975 47.125C21.9346 43.2867 16.8133 38.1654 12.975 32.125C8.74995 25.603 6.12061 18.1775 5.3 10.45C5.23753 9.75867 5.31969 9.0619 5.54125 8.40406C5.76282 7.74622 6.11893 7.14172 6.58692 6.62905C7.0549 6.11638 7.62451 5.70677 8.25948 5.4263C8.89444 5.14583 9.58085 5.00065 10.275 5H17.775C18.9883 4.98806 20.1645 5.41769 21.0844 6.20883C22.0043 6.99996 22.6052 8.09861 22.775 9.3C23.0916 11.7002 23.6786 14.0568 24.525 16.325C24.8614 17.2198 24.9342 18.1923 24.7348 19.1272C24.5354 20.0621 24.0722 20.9203 23.4 21.6L20.225 24.775C23.7839 31.0339 28.9661 36.2161 35.225 39.775L38.4 36.6C39.0797 35.9278 39.9379 35.4646 40.8728 35.2652C41.8077 35.0658 42.7802 35.1386 43.675 35.475C45.9432 36.3214 48.2998 36.9084 50.7 37.225C51.9144 37.3963 53.0235 38.008 53.8163 38.9437C54.6092 39.8795 55.0304 41.0739 55 42.3Z"/>
</mask>
<path d="M55 42.3L35.0061 41.8039C35.002 41.9692 35 42.1346 35 42.3H55ZM55 49.8H35C35 49.8271 35 49.8541 35.0002 49.8812L55 49.8ZM49.55 54.8L47.3895 74.683C47.5095 74.696 47.6296 74.708 47.7498 74.7188L49.55 54.8ZM27.975 47.125L38.857 30.3446C38.8053 30.3111 38.7534 30.2778 38.7014 30.2447L27.975 47.125ZM12.975 32.125L29.8553 21.3986C29.8239 21.3492 29.7924 21.3001 29.7606 21.251L12.975 32.125ZM5.3 10.45L-14.6188 12.25C-14.6094 12.3541 -14.5992 12.4581 -14.5882 12.562L5.3 10.45ZM10.275 5V-15C10.2687 -15 10.2624 -15 10.2562 -15L10.275 5ZM17.775 5V25C17.8406 25 17.9062 24.9997 17.9718 24.999L17.775 5ZM22.775 9.3L42.6033 6.68485C42.5952 6.62352 42.5868 6.56222 42.5782 6.50097L22.775 9.3ZM24.525 16.325L5.78705 23.3171C5.79267 23.3321 5.7983 23.3472 5.80395 23.3622L24.525 16.325ZM23.4 21.6L37.5421 35.7421C37.5685 35.7158 37.5948 35.6893 37.621 35.6628L23.4 21.6ZM20.225 24.775L6.08286 10.6329C-0.283398 16.9991 -1.61115 26.8344 2.83911 34.6609L20.225 24.775ZM35.225 39.775L25.3391 57.1609C33.1656 61.6111 43.0009 60.2834 49.3671 53.9171L35.225 39.775ZM38.4 36.6L24.3372 22.379C24.3107 22.4052 24.2842 22.4315 24.2579 22.4579L38.4 36.6ZM43.675 35.475L36.6378 54.196C36.6528 54.2017 36.6678 54.2073 36.6829 54.2129L43.675 35.475ZM50.7 37.225L53.4938 17.4211C53.4343 17.4127 53.3747 17.4046 53.3151 17.3967L50.7 37.225ZM55 42.3H35V49.8H55H75V42.3H55ZM55 49.8L35.0002 49.8812C34.9917 47.7924 35.4196 45.7249 36.2563 43.8111L54.5813 51.8234L72.9062 59.8357C74.3008 56.646 75.014 53.2001 74.9998 49.7188L55 49.8ZM54.5813 51.8234L36.2563 43.8111C37.0931 41.8972 38.3204 40.1792 39.8596 38.7672L53.3802 53.5047L66.9008 68.2421C69.466 65.8887 71.5115 63.0254 72.9062 59.8357L54.5813 51.8234ZM53.3802 53.5047L39.8596 38.7672C41.3987 37.3552 43.2158 36.2801 45.1945 35.6109L51.6019 54.5568L58.0092 73.5026C61.3071 72.3873 64.3356 70.5955 66.9008 68.2421L53.3802 53.5047ZM51.6019 54.5568L45.1945 35.6109C47.1733 34.9417 49.2699 34.6932 51.3502 34.8812L49.55 54.8L47.7498 74.7188C51.2169 75.0322 54.7113 74.618 58.0092 73.5026L51.6019 54.5568ZM49.55 54.8L51.7104 34.917C47.1273 34.419 42.725 32.853 38.857 30.3446L27.975 47.125L17.093 63.9054C26.21 69.8178 36.5868 73.5092 47.3895 74.683L49.55 54.8ZM27.975 47.125L38.7014 30.2447C35.1391 27.9811 32.1189 24.9609 29.8553 21.3986L12.975 32.125L-3.90528 42.8514C1.50777 51.37 8.73001 58.5922 17.2486 64.0053L27.975 47.125ZM12.975 32.125L29.7606 21.251C27.2435 17.3655 25.6771 12.9417 25.1882 8.33801L5.3 10.45L-14.5882 12.562C-13.4358 23.4133 -9.74361 33.8405 -3.8106 42.999L12.975 32.125ZM5.3 10.45L25.2188 8.64999C25.4063 10.724 25.1598 12.8143 24.4951 14.7878L5.54125 8.40406L-13.4126 2.02031C-14.5204 5.3095 -14.9312 8.79333 -14.6188 12.25L5.3 10.45ZM5.54125 8.40406L24.4951 14.7878C23.8304 16.7613 22.7621 18.5748 21.3581 20.1128L6.58692 6.62905L-8.18426 -6.85473C-10.5242 -4.29138 -12.3048 -1.26889 -13.4126 2.02031L5.54125 8.40406ZM6.58692 6.62905L21.3581 20.1128C19.9541 21.6508 18.2453 22.8797 16.3404 23.7211L8.25948 5.4263L0.178551 -12.8685C-2.99629 -11.4661 -5.84433 -9.41807 -8.18426 -6.85473L6.58692 6.62905ZM8.25948 5.4263L16.3404 23.7211C14.4355 24.5625 12.3763 24.998 10.2938 25L10.275 5L10.2562 -15C6.78543 -14.9967 3.35338 -14.2708 0.178551 -12.8685L8.25948 5.4263ZM10.275 5V25H17.775V5V-15H10.275V5ZM17.775 5L17.9718 24.999C14.332 25.0349 10.8034 23.7459 8.04361 21.3725L21.0844 6.20883L34.1252 -8.95487C29.5256 -12.9105 23.6445 -15.0587 17.5782 -14.999L17.775 5ZM21.0844 6.20883L8.04361 21.3725C5.28384 18.9991 3.48125 15.7032 2.97183 12.099L22.775 9.3L42.5782 6.50097C41.7291 0.49405 38.7248 -4.9992 34.1252 -8.95487L21.0844 6.20883ZM22.775 9.3L2.94671 11.9151C3.4605 15.8108 4.41334 19.6357 5.78705 23.3171L24.525 16.325L43.2629 9.3329C42.9439 8.47791 42.7226 7.58957 42.6033 6.68485L22.775 9.3ZM24.525 16.325L5.80395 23.3622C4.79487 20.6778 4.57649 17.7603 5.17465 14.9556L24.7348 19.1272L44.2949 23.2988C45.2918 18.6242 44.9278 13.7618 43.246 9.28778L24.525 16.325ZM24.7348 19.1272L5.17465 14.9556C5.77282 12.1509 7.16248 9.57638 9.17895 7.53722L23.4 21.6L37.621 35.6628C40.9818 32.2642 43.2979 27.9734 44.2949 23.2988L24.7348 19.1272ZM23.4 21.6L9.25786 7.45786L6.08286 10.6329L20.225 24.775L34.3671 38.9171L37.5421 35.7421L23.4 21.6ZM20.225 24.775L2.83911 34.6609C8.17744 44.0492 15.9508 51.8226 25.3391 57.1609L35.225 39.775L45.1109 22.3891C41.9815 20.6097 39.3903 18.0185 37.6109 14.8891L20.225 24.775ZM35.225 39.775L49.3671 53.9171L52.5421 50.7421L38.4 36.6L24.2579 22.4579L21.0829 25.6329L35.225 39.775ZM38.4 36.6L52.4628 50.821C50.4236 52.8375 47.8492 54.2272 45.0444 54.8253L40.8728 35.2652L36.7012 15.7051C32.0266 16.7021 27.7358 19.0182 24.3372 22.379L38.4 36.6ZM40.8728 35.2652L45.0444 54.8253C42.2397 55.4235 39.3222 55.2051 36.6378 54.196L43.675 35.475L50.7122 16.754C46.2381 15.0722 41.3758 14.7082 36.7012 15.7051L40.8728 35.2652ZM43.675 35.475L36.6829 54.2129C40.3643 55.5867 44.1892 56.5395 48.0848 57.0533L50.7 37.225L53.3151 17.3967C52.4104 17.2774 51.5221 17.0561 50.6671 16.7371L43.675 35.475ZM50.7 37.225L47.9061 57.0289C44.2629 56.5149 40.9356 54.6799 38.5572 51.8727L53.8163 38.9437L69.0755 26.0148C65.1113 21.3362 59.5659 18.2777 53.4938 17.4211L50.7 37.225ZM53.8163 38.9437L38.5572 51.8727C36.1787 49.0655 34.9149 45.4821 35.0061 41.8039L55 42.3L74.9938 42.7961C75.146 36.6658 73.0396 30.6934 69.0755 26.0148L53.8163 38.9437Z" fill="#09637E" mask="url(#path-1-inside-1_117_760)"/>
</svg>
