<svg width="20" height="20" viewBox="0 0 20 20" fill="none" xmlns="http://www.w3.org/2000/svg">
<mask id="path-1-inside-1_139_17" fill="white">
<path d="M19.8881 14.9201V17.9201C19.8892 18.1986 19.8322 18.4743 19.7206 18.7294C19.6091 18.9846 19.4454 19.2137 19.2402 19.402C19.035 19.5902 18.7927 19.7336 18.5289 19.8228C18.265 19.912 17.9855 19.9452 17.7081 19.9201C14.631 19.5857 11.6751 18.5342 9.07812 16.8501C6.66194 15.3148 4.61345 13.2663 3.07812 10.8501C1.3881 8.2413 0.33636 5.27109 0.00811671 2.1801C-0.0168728 1.90356 0.0159916 1.62486 0.104617 1.36172C0.193243 1.09859 0.335688 0.856786 0.522883 0.651718C0.710078 0.44665 0.937922 0.282806 1.19191 0.170619C1.44589 0.0584315 1.72046 0.000358432 1.99812 9.69523e-05H4.99812C5.48342 -0.00467949 5.95391 0.167176 6.32188 0.48363C6.68985 0.800084 6.93019 1.23954 6.99812 1.7201C7.12474 2.68016 7.35957 3.62282 7.69812 4.5301C7.83266 4.88802 7.86178 5.27701 7.78202 5.65098C7.70227 6.02494 7.51698 6.36821 7.24812 6.6401L5.97812 7.9101C7.40167 10.4136 9.47457 12.4865 11.9781 13.9101L13.2481 12.6401C13.52 12.3712 13.8633 12.1859 14.2372 12.1062C14.6112 12.0264 15.0002 12.0556 15.3581 12.1901C16.2654 12.5286 17.2081 12.7635 18.1681 12.8901C18.6539 12.9586 19.0975 13.2033 19.4146 13.5776C19.7318 13.9519 19.9003 14.4297 19.8881 14.9201Z"/>
</mask>
<path d="M19.8881 14.9201L7.89181 14.6224C7.88935 14.7216 7.88812 14.8209 7.88812 14.9201H19.8881ZM19.8881 17.9201H7.88812C7.88812 17.9363 7.88815 17.9526 7.88822 17.9688L19.8881 17.9201ZM17.7081 19.9201L16.4118 31.8499C16.4838 31.8577 16.5559 31.8649 16.628 31.8714L17.7081 19.9201ZM9.07812 16.8501L15.6073 6.78186C15.5763 6.76174 15.5452 6.74177 15.514 6.72193L9.07812 16.8501ZM3.07812 10.8501L13.2063 4.41424C13.1875 4.38464 13.1685 4.35513 13.1495 4.3257L3.07812 10.8501ZM0.00811671 2.1801L-11.9432 3.2601C-11.9375 3.32255 -11.9314 3.38494 -11.9248 3.44729L0.00811671 2.1801ZM1.99812 9.69524e-05V-11.9999L1.98682 -11.9999L1.99812 9.69524e-05ZM4.99812 9.69524e-05V12.0001C5.03748 12.0001 5.07685 11.9999 5.11622 11.9995L4.99812 9.69524e-05ZM6.99812 1.7201L18.8951 0.151007C18.8902 0.114208 18.8852 0.077431 18.88 0.0406781L6.99812 1.7201ZM7.69812 4.5301L-3.54465 8.72536C-3.54128 8.73438 -3.5379 8.74341 -3.53451 8.75243L7.69812 4.5301ZM7.24812 6.6401L15.7334 15.1254C15.7492 15.1096 15.765 15.0937 15.7807 15.0778L7.24812 6.6401ZM5.97812 7.9101L-2.50716 -0.575186C-6.32692 3.24457 -7.12357 9.14574 -4.45342 13.8416L5.97812 7.9101ZM11.9781 13.9101L6.04658 24.3416C10.7425 27.0118 16.6436 26.2151 20.4634 22.3954L11.9781 13.9101ZM13.2481 12.6401L4.81045 4.10747C4.79453 4.12321 4.77866 4.13899 4.76284 4.15482L13.2481 12.6401ZM15.3581 12.1901L11.1358 23.4227C11.1448 23.4261 11.1538 23.4295 11.1629 23.4329L15.3581 12.1901ZM18.1681 12.8901L19.8444 1.00776C19.8087 1.00272 19.773 0.997842 19.7372 0.993126L18.1681 12.8901ZM19.8881 14.9201H7.88812V17.9201H19.8881H31.8881V14.9201H19.8881ZM19.8881 17.9201L7.88822 17.9688C7.88256 16.5763 8.1678 15.198 8.72567 13.9221L19.7206 18.7294L30.7156 23.5368C31.4966 21.7506 31.8959 19.8209 31.888 17.8714L19.8881 17.9201ZM19.7206 18.7294L8.72567 13.9221C9.28354 12.6462 10.1017 11.5008 11.1278 10.5595L19.2402 19.402L27.3526 28.2444C28.7891 26.9265 29.9346 25.3231 30.7156 23.5368L19.7206 18.7294ZM19.2402 19.402L11.1278 10.5595C12.1539 9.6181 13.3653 8.90139 14.6845 8.45528L18.5289 19.8228L22.3733 31.1903C24.22 30.5658 25.916 29.5624 27.3526 28.2444L19.2402 19.402ZM18.5289 19.8228L14.6845 8.45528C16.0036 8.00917 17.4013 7.84347 18.7882 7.96881L17.7081 19.9201L16.628 31.8714C18.5696 32.0469 20.5265 31.8149 22.3733 31.1903L18.5289 19.8228ZM17.7081 19.9201L19.0044 7.99032C17.7931 7.8587 16.6296 7.4448 15.6073 6.78186L9.07812 16.8501L2.5489 26.9183C6.72063 29.6237 11.4688 31.3128 16.4118 31.8499L17.7081 19.9201ZM9.07812 16.8501L15.514 6.72193C14.5847 6.13142 13.7968 5.34354 13.2063 4.41424L3.07812 10.8501L-7.05005 17.286C-4.56989 21.189 -1.26079 24.4981 2.64226 26.9783L9.07812 16.8501ZM3.07812 10.8501L13.1495 4.3257C12.4842 3.29879 12.0702 2.12962 11.941 0.912902L0.00811671 2.1801L-11.9248 3.44729C-11.3975 8.41256 -9.70804 13.1838 -6.99324 17.3745L3.07812 10.8501ZM0.00811671 2.1801L11.9594 1.10009C12.0844 2.48276 11.92 3.8763 11.4769 5.19197L0.104617 1.36172L-11.2677 -2.46853C-11.8881 -0.626582 -12.1181 1.32437 -11.9432 3.2601L0.00811671 2.1801ZM0.104617 1.36172L11.4769 5.19197C11.0338 6.50765 10.3216 7.71665 9.38559 8.74199L0.522883 0.651718L-8.33982 -7.43855C-9.65019 -6.00307 -10.6473 -4.31048 -11.2677 -2.46853L0.104617 1.36172ZM0.522883 0.651718L9.38559 8.74199C8.44962 9.76732 7.3104 10.5865 6.04046 11.1475L1.19191 0.170619L-3.65665 -10.8062C-5.43456 -10.0209 -7.02946 -8.87402 -8.33982 -7.43855L0.522883 0.651718ZM1.19191 0.170619L6.04046 11.1475C4.77053 11.7084 3.39771 11.9988 2.00942 12.0001L1.99812 9.69524e-05L1.98682 -11.9999C0.0432009 -11.9981 -1.87874 -11.5916 -3.65665 -10.8062L1.19191 0.170619ZM1.99812 9.69524e-05V12.0001H4.99812V9.69524e-05V-11.9999H1.99812V9.69524e-05ZM4.99812 9.69524e-05L5.11622 11.9995C2.68969 12.0234 0.337257 11.1641 -1.50259 9.58185L6.32188 0.48363L14.1463 -8.61459C11.5706 -10.8298 8.27716 -12.0328 4.88002 -11.9993L4.99812 9.69524e-05ZM6.32188 0.48363L-1.50259 9.58185C-3.34245 7.99958 -4.54417 5.80228 -4.88378 3.39952L6.99812 1.7201L18.88 0.0406781C18.4046 -3.32319 16.7221 -6.39941 14.1463 -8.61459L6.32188 0.48363ZM6.99812 1.7201L-4.89886 3.28919C-4.65389 5.14652 -4.1996 6.97017 -3.54465 8.72536L7.69812 4.5301L18.9409 0.334839C18.9187 0.275479 18.9034 0.21381 18.8951 0.151007L6.99812 1.7201ZM7.69812 4.5301L-3.53451 8.75243C-4.20722 6.96282 -4.35282 5.01786 -3.95404 3.14803L7.78202 5.65098L19.5181 8.15393C20.0764 5.53616 19.8725 2.81322 18.9307 0.307767L7.69812 4.5301ZM7.78202 5.65098L-3.95404 3.14803C-3.55526 1.27819 -2.62882 -0.438131 -1.28451 -1.79757L7.24812 6.6401L15.7807 15.0778C17.6628 13.1745 18.9598 10.7717 19.5181 8.15393L7.78202 5.65098ZM7.24812 6.6401L-1.23716 -1.84519L-2.50716 -0.575186L5.97812 7.9101L14.4634 16.3954L15.7334 15.1254L7.24812 6.6401ZM5.97812 7.9101L-4.45342 13.8416C-1.9622 18.2228 1.66538 21.8504 6.04658 24.3416L11.9781 13.9101L17.9097 3.47856C17.2838 3.12267 16.7655 2.60445 16.4097 1.97856L5.97812 7.9101ZM11.9781 13.9101L20.4634 22.3954L21.7334 21.1254L13.2481 12.6401L4.76284 4.15482L3.49284 5.42482L11.9781 13.9101ZM13.2481 12.6401L21.6858 21.1727C20.3263 22.517 18.61 23.4435 16.7402 23.8423L14.2372 12.1062L11.7343 0.370126C9.11652 0.928417 6.71367 2.22543 4.81045 4.10747L13.2481 12.6401ZM14.2372 12.1062L16.7402 23.8423C14.8704 24.241 12.9254 24.0954 11.1358 23.4227L15.3581 12.1901L19.5804 0.95747C17.075 0.0156716 14.3521 -0.188166 11.7343 0.370126L14.2372 12.1062ZM15.3581 12.1901L11.1629 23.4329C12.918 24.0878 14.7417 24.5421 16.599 24.7871L18.1681 12.8901L19.7372 0.993126C19.6744 0.984843 19.6127 0.969481 19.5534 0.947331L15.3581 12.1901ZM18.1681 12.8901L16.4918 24.7724C14.063 24.4298 11.8448 23.2064 10.2591 21.335L19.4146 13.5776L28.5702 5.82022C26.3502 3.20019 23.2448 1.48746 19.8444 1.00776L18.1681 12.8901ZM19.4146 13.5776L10.2591 21.335C8.67349 19.4635 7.83097 17.0746 7.89181 14.6224L19.8881 14.9201L31.8844 15.2178C31.9696 11.7848 30.7901 8.44024 28.5702 5.82022L19.4146 13.5776Z" fill="#09637E" mask="url(#path-1-inside-1_139_17)"/>
</svg>
