<svg width="75" height="75" viewBox="0 0 75 75" fill="none" xmlns="http://www.w3.org/2000/svg">
<path d="M37.29 0.000538472C37.4724 0.000756547 37.6548 0.000974621 37.8428 0.0011993C40.4579 0.00682746 43.0397 0.0377962 45.6225 0.485195C45.8162 0.518083 45.8162 0.518083 46.0138 0.551636C49.3226 1.1384 52.1765 2.55088 54.1745 5.29062C55.2553 6.97294 55.548 8.64103 55.544 10.5968C55.5451 10.8818 55.5451 10.8818 55.5463 11.1726C55.5482 11.6911 55.5483 12.2095 55.548 12.728C55.5478 13.1625 55.5485 13.5969 55.5492 14.0313C55.5509 15.0574 55.5509 16.0834 55.55 17.1095C55.5492 18.164 55.551 19.2185 55.5541 20.273C55.5567 21.1817 55.5576 22.0904 55.5571 22.9992C55.5569 23.5404 55.5572 24.0816 55.5593 24.6228C55.5615 25.2275 55.5601 25.8321 55.5584 26.4368C55.5595 26.6133 55.5607 26.7899 55.5618 26.9718C55.5462 29.4855 54.6657 31.8593 52.9108 33.6931C51.3911 35.1761 49.2922 36.1999 47.1423 36.2054C46.8909 36.2066 46.8909 36.2066 46.6344 36.2078C46.3606 36.2081 46.3606 36.2081 46.0812 36.2083C45.7843 36.2094 45.4874 36.2106 45.1905 36.2117C44.8719 36.2129 44.5532 36.2137 44.2345 36.2144C43.5679 36.2159 42.9012 36.2189 42.2345 36.2221C40.3389 36.2312 38.4432 36.2391 36.5475 36.2439C35.5001 36.2466 34.4528 36.2509 33.4054 36.2568C32.8524 36.2599 32.2995 36.2622 31.7465 36.2625C27.5788 36.2416 27.5788 36.2416 23.6484 37.502C23.5031 37.5741 23.3579 37.6461 23.2083 37.7203C20.6167 39.1125 18.7999 41.349 17.8869 44.1258C17.4939 45.4814 17.3653 46.7589 17.3645 48.1685C17.3623 48.3818 17.3598 48.5952 17.3571 48.8086C17.3507 49.362 17.3477 49.9154 17.3455 50.4689C17.3426 51.0369 17.3364 51.6049 17.3305 52.1729C17.3195 53.2814 17.312 54.3898 17.3069 55.4983C16.2789 55.5134 15.251 55.5235 14.223 55.5305C13.8743 55.5334 13.5257 55.5374 13.177 55.5425C9.92374 55.5889 7.14377 55.3871 4.64685 53.0625C1.56678 49.73 0.648391 44.7885 0.199492 40.4282C0.174968 40.1991 0.174968 40.1991 0.149949 39.9653C-0.394751 34.0794 0.445314 27.0415 4.31849 22.3822C6.25415 20.3011 9.20854 19.1629 12.0227 19.0275C12.6957 19.008 13.3684 19.0123 14.0416 19.0169C14.2976 19.0171 14.5537 19.017 14.8097 19.0167C15.4976 19.0166 16.1855 19.0192 16.8733 19.0223C17.5949 19.025 18.3165 19.0253 19.038 19.0258C20.4012 19.0271 21.7643 19.0307 23.1274 19.0351C24.6807 19.0401 26.234 19.0425 27.7872 19.0447C30.9794 19.0492 34.1716 19.057 37.3638 19.0668C37.3638 18.3908 37.3638 17.7148 37.3638 17.0184C31.4263 17.0184 25.4889 17.0184 19.3715 17.0184C19.3715 5.63425 19.3715 5.63425 21.2887 3.55774C23.2833 1.70094 25.9462 1.06678 28.5612 0.604074C28.6885 0.581417 28.8157 0.558761 28.9468 0.535419C31.722 0.0754921 34.481 -0.00774626 37.29 0.000538472ZM24.6807 6.9229C23.9707 7.83675 23.9541 8.7193 24.0908 9.84913C24.3416 10.756 24.9279 11.389 25.7131 11.8975C26.6018 12.3238 27.6168 12.3564 28.5664 12.0947C29.4234 11.713 30.0458 11.0713 30.4531 10.2355C30.7411 9.35742 30.7372 8.31345 30.3586 7.46243C29.906 6.69699 29.2173 6.14325 28.4598 5.6884C26.9188 5.36078 25.7033 5.71117 24.6807 6.9229Z" fill="#EBF4F6"/>
<path d="M57.5681 19.0668C58.6909 19.0556 59.8136 19.048 60.9364 19.0427C61.3178 19.0405 61.6991 19.0375 62.0804 19.0337C62.631 19.0283 63.1816 19.0259 63.7322 19.024C63.9005 19.0217 64.0688 19.0194 64.2422 19.0171C66.4955 19.0166 68.5973 19.6686 70.2489 21.2363C73.4677 24.6773 74.3862 30.2367 74.823 34.7222C74.8472 34.9499 74.8472 34.9499 74.872 35.1822C75.4154 41.0118 74.2777 48.1203 70.5277 52.8185C69.2604 54.2875 67.7674 55.1858 65.8269 55.4984C65.4376 55.5115 65.0524 55.5175 64.6632 55.516C64.547 55.5161 64.4307 55.5162 64.3109 55.5164C63.9219 55.5166 63.5329 55.5158 63.1439 55.515C62.8648 55.515 62.5857 55.515 62.3066 55.5151C61.5492 55.5151 60.7918 55.5143 60.0344 55.5132C59.2427 55.5123 58.4511 55.5122 57.6594 55.5121C56.1605 55.5116 54.6615 55.5104 53.1625 55.5089C51.4559 55.5073 49.7493 55.5065 48.0427 55.5058C44.5322 55.5042 41.0217 55.5016 37.5112 55.4984C37.5112 56.2226 37.5112 56.9469 37.5112 57.6931C43.4487 57.6931 49.3861 57.6931 55.5035 57.6931C55.5035 67.811 55.5035 67.811 53.1035 70.3473C49.5631 73.5829 43.7469 74.9447 39.0695 74.9927C38.9535 74.9941 38.8375 74.9956 38.7179 74.997C32.9697 75.0533 26.1612 74.3534 21.7784 70.2152C20.3216 68.7663 19.3593 66.8635 19.3498 64.794C19.3488 64.6351 19.3477 64.4762 19.3466 64.3125C19.3462 64.1396 19.3458 63.9667 19.3454 63.7885C19.3444 63.6052 19.3435 63.422 19.3425 63.2331C19.3396 62.6261 19.3378 62.0191 19.3364 61.412C19.3358 61.202 19.3352 60.9921 19.3346 60.7821C19.3317 59.7944 19.3296 58.8066 19.3284 57.8188C19.327 56.6842 19.3231 55.5496 19.3171 54.4149C19.3127 53.5346 19.3105 52.6544 19.31 51.7741C19.3097 51.25 19.3084 50.7259 19.3046 50.2018C19.281 46.7143 19.4487 43.6989 21.9878 41.0299C23.7846 39.2268 25.9241 38.3542 28.4631 38.3391C28.6438 38.3395 28.8245 38.3399 29.0106 38.3403C29.308 38.3391 29.6053 38.3379 29.9027 38.3367C30.2201 38.3357 30.5374 38.3354 30.8548 38.3353C31.5197 38.335 32.1845 38.3324 32.8493 38.3294C34.5009 38.3222 36.1526 38.3177 37.8042 38.3145C39.0878 38.3121 40.3714 38.3087 41.6549 38.3024C42.3135 38.2992 42.9721 38.298 43.6307 38.2984C44.0435 38.2981 44.4563 38.296 44.869 38.2935C45.1467 38.2923 45.4244 38.2932 45.702 38.2943C49.0037 38.267 51.8568 37.1791 54.2781 34.9268C56.5817 32.5525 57.5086 29.6211 57.5105 26.3967C57.5128 26.1833 57.5152 25.97 57.5179 25.7566C57.5243 25.2031 57.5273 24.6497 57.5295 24.0963C57.5325 23.5282 57.5386 22.9603 57.5445 22.3923C57.5555 21.2838 57.563 20.1753 57.5681 19.0668ZM44.93 63.5564C44.3393 64.4622 44.1871 65.2549 44.2952 66.3255C44.6022 67.5225 45.3732 68.2511 46.4152 68.8768C47.5273 69.1132 48.4177 69.0163 49.4177 68.4641C50.1257 67.9628 50.512 67.3475 50.8487 66.5632C51.0198 65.4692 50.9096 64.5728 50.2617 63.6558C49.6531 62.9291 48.9741 62.4552 48.0173 62.3156C46.7497 62.2753 45.7576 62.5519 44.93 63.5564Z" fill="#EBF4F6"/>
</svg>
