<svg width="75" height="75" viewBox="0 0 75 75" fill="none" xmlns="http://www.w3.org/2000/svg">
<path d="M28.2422 42.7666C28.4052 42.7656 28.5682 42.7646 28.7361 42.7636C28.9157 42.7641 29.0953 42.7646 29.2804 42.7651C29.566 42.764 29.566 42.764 29.8573 42.7629C30.3867 42.7613 30.916 42.761 31.4454 42.7614C32.016 42.7615 32.5865 42.7597 33.1571 42.7582C34.2753 42.7556 35.3934 42.7548 36.5116 42.7546C37.4203 42.7545 38.329 42.7538 39.2378 42.7528C41.8128 42.7501 44.3879 42.7486 46.9629 42.7489C47.1018 42.7489 47.2407 42.7489 47.3838 42.7489C47.5924 42.7489 47.5924 42.7489 47.8052 42.7489C50.0593 42.7491 52.3134 42.7461 54.5675 42.7416C56.8807 42.7371 59.1939 42.735 61.5071 42.7353C62.8063 42.7354 64.1055 42.7345 65.4047 42.7311C66.5109 42.7283 67.6169 42.7276 68.7231 42.7297C69.2876 42.7307 69.8521 42.7308 70.4166 42.728C71.0282 42.7251 71.6397 42.7271 72.2514 42.7295C72.5198 42.7271 72.5198 42.7271 72.7936 42.7246C73.4871 42.7307 73.9847 42.7452 74.6152 43.0474C75.0025 43.5791 75.0047 44.0419 74.9947 44.6758C74.9958 44.8019 74.997 44.928 74.9981 45.0579C75.0009 45.481 74.998 45.9038 74.9952 46.3269C74.996 46.6299 74.9971 46.933 74.9986 47.236C75.0015 48.0595 74.9995 48.883 74.9964 49.7065C74.9938 50.5676 74.9952 51.4287 74.996 52.2898C74.9967 53.736 74.9942 55.1822 74.9898 56.6284C74.9848 58.3013 74.9848 59.9741 74.9875 61.647C74.99 63.2551 74.989 64.8632 74.9863 66.4713C74.9852 67.1562 74.9854 67.8411 74.9865 68.526C74.9877 69.3323 74.9858 70.1385 74.9815 70.9448C74.9805 71.241 74.9804 71.5373 74.9816 71.8335C74.9829 72.2373 74.9804 72.6409 74.977 73.0446C74.9783 73.1624 74.9795 73.2802 74.9809 73.4016C74.9727 73.9142 74.9486 74.2201 74.6287 74.6302C74.1997 74.9692 74.0043 74.992 73.4637 74.9924C73.2179 74.9948 73.2179 74.9948 72.967 74.9973C72.7871 74.9959 72.6072 74.9945 72.4219 74.9931C72.2306 74.9941 72.0394 74.995 71.8423 74.996C71.3112 74.9981 70.7801 74.9974 70.249 74.9954C69.6763 74.994 69.1036 74.9962 68.5309 74.9979C67.409 75.0007 66.287 75.0001 65.165 74.9983C64.2533 74.9969 63.3416 74.9967 62.4299 74.9974C62.2354 74.9975 62.2354 74.9975 62.037 74.9977C61.7736 74.9979 61.5103 74.9981 61.2469 74.9983C58.776 75 56.3052 74.998 53.8343 74.9946C51.7132 74.9918 49.5922 74.9923 47.4711 74.9952C45.0092 74.9986 42.5473 74.9999 40.0854 74.998C39.823 74.9978 39.5606 74.9976 39.2982 74.9974C39.1045 74.9972 39.1045 74.9972 38.9069 74.9971C37.9961 74.9965 37.0853 74.9974 36.1745 74.9989C35.0648 75.0007 33.9551 75.0002 32.8455 74.9969C32.2791 74.9952 31.7127 74.9946 31.1463 74.9966C30.5329 74.9988 29.9196 74.9962 29.3062 74.9931C29.0364 74.9952 29.0364 74.9952 28.7611 74.9973C28.5972 74.9957 28.4332 74.994 28.2644 74.9924C28.1227 74.9923 27.9811 74.9922 27.8352 74.9921C27.338 74.8886 27.1517 74.672 26.8317 74.2871C26.5936 73.8107 26.6531 73.3155 26.6542 72.7928C26.6539 72.6696 26.6535 72.5463 26.6531 72.4193C26.6521 72.004 26.6523 71.5887 26.6524 71.1734C26.6519 70.8766 26.6514 70.5798 26.6508 70.283C26.6494 69.475 26.6491 68.667 26.649 67.8589C26.6488 67.1852 26.6482 66.5115 26.6477 65.8377C26.6464 64.2485 26.646 62.6593 26.6461 61.0702C26.6462 59.4291 26.6446 57.7881 26.6421 56.1471C26.6401 54.7397 26.6392 53.3323 26.6393 51.925C26.6394 51.0837 26.6389 50.2425 26.6373 49.4013C26.6357 48.6102 26.6357 47.8191 26.6369 47.028C26.637 46.7373 26.6367 46.4466 26.6357 46.1559C26.6345 45.7597 26.6352 45.3636 26.6364 44.9674C26.6356 44.8518 26.6348 44.7363 26.634 44.6172C26.6379 44.0441 26.6487 43.5948 26.9883 43.1202C27.5014 42.778 27.6477 42.7676 28.2422 42.7666ZM33.6024 51.2007C32.6537 52.2091 32.2079 53.5081 32.1304 54.8781C32.2113 56.3934 32.7985 57.7222 33.877 58.7819C34.9717 59.7401 36.1889 60.0349 37.5997 60.2612C38.5225 60.4139 39.044 60.5701 39.6698 61.2878C40.1587 62.1683 40.205 62.9445 39.9628 63.9136C39.6891 64.6159 39.1803 64.9554 38.5739 65.3599C37.5812 65.5908 36.8092 65.5744 35.9123 65.0466C35.0523 64.3207 34.9235 63.6351 34.6892 62.5689C34.5441 62.0501 34.5441 62.0501 34.1229 61.7674C33.6016 61.5519 33.3166 61.5946 32.7811 61.7577C32.3611 62.0184 32.3139 62.2189 32.1744 62.6974C32.0501 63.9513 32.5823 65.1496 33.304 66.1429C34.201 67.224 35.4252 68.0326 36.8517 68.179C38.4769 68.2892 39.8183 67.7957 41.0789 66.7694C42.1723 65.7755 42.7255 64.4197 42.8151 62.9531C42.764 61.4547 42.2525 60.1942 41.2355 59.0952C40.1142 58.1386 39.0994 57.706 37.6345 57.5486C36.49 57.3919 35.9871 57.2073 35.2372 56.3152C34.8705 55.6089 34.7018 54.9834 34.9075 54.2113C35.0229 53.9015 35.151 53.6019 35.2861 53.3003C35.3378 53.1453 35.3894 52.9902 35.4426 52.8305C36.2445 52.306 37.17 52.1186 38.106 52.2768C38.8217 52.4695 39.3592 52.7614 39.7873 53.3884C40.0108 54.0033 40.1649 54.6212 40.3053 55.2599C40.4821 55.7274 40.6434 55.8816 41.0789 56.1194C41.6113 56.1007 42.0075 56.0633 42.4684 55.7866C42.8563 55.1398 42.8497 54.6355 42.7032 53.9164C42.1616 51.9679 41.2229 50.8733 39.4839 49.8841C37.2465 49.187 35.3223 49.6373 33.6024 51.2007ZM46.7604 51.4374C45.6938 52.9494 45.5462 54.2486 45.5513 56.0644C45.5506 56.2871 45.5498 56.5098 45.5488 56.7325C45.5474 57.1977 45.5478 57.6629 45.5494 58.1281C45.5512 58.7203 45.548 59.3124 45.5434 59.9046C45.5405 60.3642 45.5406 60.8237 45.5415 61.2832C45.5415 61.5014 45.5406 61.7195 45.5386 61.9377C45.5241 63.8187 45.8468 65.3801 47.1848 66.7694C48.2656 67.7006 49.4695 68.0898 50.8738 68.2377C51.4807 68.1715 52.019 68.0185 52.5972 67.8272C52.9882 67.7059 53.3535 67.6006 53.7605 67.5525C53.8864 67.6559 54.0123 67.7592 54.1421 67.8657C54.5215 68.2264 54.5215 68.2264 55.0227 68.1888C55.6104 67.9761 55.8106 67.7883 56.1089 67.2393C56.0982 66.4881 56.0982 66.4881 55.7083 65.875C55.6338 65.8084 55.5594 65.7417 55.4826 65.6731C55.5147 65.5786 55.5468 65.4841 55.5799 65.3868C55.6432 65.199 55.6432 65.199 55.7077 65.0075C55.7495 64.8839 55.7913 64.7604 55.8343 64.6331C56.0452 63.9727 56.1296 63.4113 56.1341 62.7138C56.1356 62.5276 56.1371 62.3415 56.1387 62.1497C56.1393 61.9488 56.14 61.748 56.1407 61.5411C56.1411 61.4382 56.1416 61.3353 56.142 61.2294C56.1444 60.6843 56.1458 60.1392 56.1465 59.5941C56.1474 59.0349 56.1511 58.4757 56.1556 57.9165C56.1585 57.4833 56.1593 57.0501 56.1595 56.6169C56.1602 56.3117 56.1632 56.0065 56.1661 55.7014C56.1613 53.7644 55.8005 52.4049 54.4448 51C53.4157 50.0445 52.078 49.4702 50.6628 49.4981C49.1351 49.6894 47.7419 50.2292 46.7604 51.4374ZM59.2401 50.0113C58.9137 50.5011 58.8875 50.6117 58.8851 51.1686C58.8838 51.3091 58.8825 51.4497 58.8811 51.5944C58.8812 51.7482 58.8814 51.902 58.8815 52.0604C58.8805 52.2227 58.8794 52.385 58.8783 52.5521C58.8754 53.0899 58.8748 53.6276 58.8744 54.1654C58.8734 54.5386 58.8724 54.9117 58.8713 55.2849C58.8694 56.0677 58.8688 56.8506 58.869 57.6334C58.869 58.6371 58.8647 59.6407 58.8594 60.6444C58.8559 61.4153 58.8552 62.1862 58.8554 62.9572C58.855 63.3272 58.8536 63.6973 58.8512 64.0673C58.8482 64.5848 58.8491 65.102 58.8509 65.6195C58.8492 65.7726 58.8474 65.9258 58.8456 66.0836C58.8519 66.7606 58.8631 67.1358 59.2253 67.7223C59.7295 68.1836 60.0131 68.1991 60.6825 68.2017C60.938 68.2032 60.938 68.2032 61.1987 68.2048C61.4758 68.205 61.4758 68.205 61.7586 68.2053C61.9478 68.2058 62.137 68.2063 62.3319 68.2069C62.7328 68.2077 63.1337 68.208 63.5346 68.208C64.1486 68.2083 64.7626 68.2112 65.3767 68.2142C65.7656 68.2146 66.1546 68.2149 66.5435 68.2151C66.7277 68.2162 66.9118 68.2173 67.1015 68.2185C67.2729 68.218 67.4442 68.2175 67.6207 68.217C67.7714 68.2172 67.922 68.2175 68.0772 68.2177C68.502 68.1766 68.7483 68.0994 69.1036 67.8657C69.4708 67.3147 69.5075 67.1049 69.4167 66.4562C69.0974 66.0005 68.8457 65.7144 68.2846 65.605C67.8483 65.5823 67.4187 65.5851 66.982 65.5966C66.7439 65.5983 66.7439 65.5983 66.501 65.6C65.9952 65.6044 65.4897 65.6142 64.984 65.6242C64.6406 65.6281 64.2972 65.6317 63.9538 65.6349C63.1131 65.6435 62.2726 65.6566 61.432 65.6731C61.4334 65.4845 61.4348 65.2959 61.4362 65.1016C61.4489 63.3249 61.4583 61.5481 61.4645 59.7713C61.4677 58.8579 61.4722 57.9444 61.4793 57.031C61.4861 56.1495 61.4898 55.2681 61.4914 54.3866C61.4926 54.0502 61.4949 53.7138 61.4982 53.3775C61.5028 52.9065 61.5034 52.4357 61.5031 51.9647C61.5054 51.8254 61.5076 51.6862 61.5099 51.5427C61.5056 50.8989 61.4844 50.5658 61.1383 50.0067C60.4524 49.3702 59.9586 49.4674 59.2401 50.0113Z" fill="#EBF4F6"/>
<path d="M0.0595424 10.8569C0.59832 11.0666 1.10139 11.305 1.61041 11.5795C7.13272 14.5093 13.9303 15.3093 20.0995 15.7121C20.2952 15.7256 20.4909 15.7391 20.6926 15.753C22.6702 15.8813 24.6449 15.9001 26.6262 15.8981C26.879 15.8979 26.879 15.8979 27.1368 15.8978C29.9175 15.8936 32.6732 15.8257 35.4427 15.5555C35.5447 15.5456 35.6467 15.5357 35.7519 15.5255C41.6332 14.9491 47.9096 14.0865 53.051 10.9842C53.2908 10.8569 53.2908 10.8569 53.6039 10.8569C53.6148 12.62 53.6231 14.383 53.6282 16.1461C53.6307 16.9647 53.634 17.7834 53.6393 18.602C53.6444 19.3921 53.6473 20.1821 53.6485 20.9722C53.6493 21.2736 53.651 21.575 53.6536 21.8764C53.657 22.2986 53.6574 22.7207 53.6572 23.143C53.6598 23.3299 53.6598 23.3299 53.6623 23.5205C53.6574 24.3977 53.4615 24.8813 52.9024 25.538C46.0263 31.8814 31.417 31.2052 22.6672 30.8698C5.28191 30.1191 5.28191 30.1191 0.281436 25.1775C-0.0437286 24.6183 -0.00206823 24.074 0.00622094 23.4452C0.00615235 23.3092 0.00608376 23.1731 0.0060131 23.033C0.00634002 22.5838 0.00999296 22.1347 0.0136745 21.6856C0.0145506 21.3739 0.0152191 21.0623 0.0156884 20.7507C0.0174809 19.9309 0.0220945 19.1111 0.0272915 18.2913C0.0320978 17.4546 0.0342418 16.6179 0.0366084 15.7812C0.0416444 14.1398 0.04966 12.4984 0.0595424 10.8569Z" fill="#EBF4F6"/>
<path d="M0.0595473 28.2417C0.598316 28.4513 1.10138 28.6897 1.61038 28.9643C6.54291 31.5808 12.4018 32.3511 17.8881 32.8913C18.1723 32.9194 18.1723 32.9194 18.4622 32.948C21.2094 33.2027 23.9563 33.2861 26.7143 33.2828C26.8632 33.2827 27.0122 33.2826 27.1656 33.2825C35.6349 33.2681 45.3776 32.7233 52.8975 28.4485C53.2908 28.2417 53.2908 28.2417 53.6039 28.2417C53.6039 32.2214 53.6039 36.201 53.6039 40.3012C51.7121 40.3035 49.8202 40.3057 47.871 40.308C46.6723 40.3111 45.4737 40.3145 44.275 40.3187C42.3725 40.3254 40.47 40.3312 38.5675 40.3319C37.1818 40.3324 35.7962 40.3356 34.4105 40.3421C33.6772 40.3454 32.9439 40.3474 32.2105 40.3461C31.5194 40.3449 30.8283 40.3474 30.1372 40.3526C29.8844 40.3539 29.6316 40.3539 29.3788 40.3524C27.987 40.345 26.7447 40.372 25.5792 41.241C24.6053 42.2468 24.2992 43.293 24.2619 44.6908C24.2528 44.9929 24.2528 44.9929 24.2436 45.3011C24.2386 45.5106 24.2337 45.7202 24.2289 45.9297C24.2229 46.1435 24.2168 46.3573 24.2105 46.5711C24.1958 47.0915 24.1824 47.6118 24.1702 48.1321C17.2044 48.3462 6.3889 47.7179 0.813004 43.0812C0.280845 42.5607 0.0701799 42.346 0.0218927 41.595C0.0209836 41.3459 0.0218203 41.0968 0.0239997 40.8478C0.023954 40.7117 0.0239083 40.5757 0.0238612 40.4356C0.0240795 39.9856 0.0265165 39.5356 0.0289687 39.0856C0.0295527 38.7738 0.0299984 38.4619 0.0303113 38.1501C0.0315074 37.329 0.034584 36.5079 0.0380468 35.6868C0.0412488 34.8491 0.0426798 34.0114 0.044258 33.1736C0.0476171 31.5296 0.0529621 29.8857 0.0595473 28.2417Z" fill="#EBF4F6"/>
<path d="M26.2916 0.000657948C26.6608 0.00150882 27.03 0.00188038 27.3992 0.00220415C30.9345 0.00703675 34.4362 0.0734514 37.9477 0.520292C38.1391 0.542929 38.3306 0.565566 38.5279 0.588889C50.1928 1.98232 50.1928 1.98232 53.2908 5.53205C53.6766 6.29086 53.6801 6.91472 53.4473 7.7247C52.8993 8.722 51.9199 9.2489 50.9423 9.76073C50.8172 9.82654 50.6921 9.89236 50.5632 9.96017C43.5263 13.3924 34.5729 13.5584 26.8806 13.5489C26.7363 13.5488 26.5919 13.5487 26.4431 13.5486C6.12766 13.5129 6.12766 13.5129 0.761014 8.4515C0.122215 7.74335 -0.0294454 7.34301 0.0069452 6.38672C0.123994 5.53033 0.65466 5.05962 1.28268 4.52383C4.99115 1.80134 10.2717 1.23505 14.6981 0.647544C14.8797 0.623279 15.0612 0.599015 15.2483 0.574015C15.8731 0.495713 16.4984 0.426619 17.1248 0.363675C17.3307 0.342938 17.3307 0.342938 17.5407 0.321782C20.4584 0.0389729 23.3633 -0.00636023 26.2916 0.000657948Z" fill="#EBF4F6"/>
<path d="M0.0595338 45.6262C0.598302 45.8359 1.10137 46.0742 1.61037 46.3488C7.80199 49.6333 15.6497 50.3198 22.5592 50.5846C23.1252 50.6076 23.6177 50.6564 24.1701 50.7946C24.1701 55.2394 24.1701 59.6842 24.1701 64.2637C5.11653 63.5306 5.11653 63.5306 0.216096 58.4689C-0.0226764 57.9911 0.0392183 57.4938 0.0417599 56.9699C0.0417371 56.8477 0.0417142 56.7254 0.0416907 56.5994C0.0417999 56.1944 0.0430191 55.7893 0.0442445 55.3842C0.0445364 55.1038 0.0447593 54.8233 0.0449157 54.5428C0.0455141 53.8039 0.0470528 53.0649 0.0487835 52.326C0.0503836 51.5722 0.0510998 50.8185 0.0518891 50.0647C0.0535693 48.5852 0.0562423 47.1057 0.0595338 45.6262Z" fill="#EBF4F6"/>
<path d="M52.4003 52.4685C52.9928 52.9784 53.3569 53.4989 53.6039 54.2402C53.6178 54.5405 53.6223 54.8412 53.6217 55.1418C53.6217 55.3268 53.6217 55.5117 53.6216 55.7023C53.6208 55.902 53.62 56.1017 53.6192 56.3074C53.619 56.5119 53.6187 56.7163 53.6185 56.9269C53.6179 57.47 53.6164 58.013 53.6147 58.556C53.6131 59.1103 53.6123 59.6646 53.6115 60.2189C53.6099 61.3062 53.6072 62.3934 53.6039 63.4806C53.1342 63.4806 53.1342 63.4806 52.6645 63.1674C52.1009 63.0954 51.8259 63.1028 51.3435 63.4121C51.0469 63.7953 51.0469 63.7953 51.1185 64.342C51.2293 64.7855 51.3356 65.1282 51.5686 65.5167C50.6728 65.722 50.0217 65.6839 49.2202 65.2034C48.5965 64.6308 48.1488 64.0985 48.1022 63.2244C48.1012 63.0586 48.1001 62.8927 48.099 62.7218C48.0975 62.5336 48.096 62.3454 48.0944 62.1515C48.0938 61.9479 48.0931 61.7443 48.0924 61.5346C48.0915 61.3233 48.0906 61.112 48.0897 60.9007C48.0881 60.4577 48.0872 60.0147 48.0866 59.5717C48.0857 59.0055 48.082 58.4395 48.0775 57.8734C48.0746 57.4368 48.0738 57.0003 48.0736 56.5637C48.0729 56.254 48.0699 55.9443 48.067 55.6346C48.0675 55.4449 48.0679 55.2552 48.0684 55.0598C48.0678 54.8936 48.0673 54.7274 48.0667 54.5561C48.1634 53.7616 48.468 53.2671 49.0342 52.7132C50.1377 51.934 51.1988 51.8562 52.4003 52.4685Z" fill="#EBF4F6"/>
</svg>
